<?xml version="1.0" encoding="UTF-8"?>
<svg version="1.1" xmlns="http://www.w3.org/2000/svg" width="912" height="787">
<path d="M0 0 C300.96 0 601.92 0 912 0 C912 259.71 912 519.42 912 787 C611.04 787 310.08 787 0 787 C0 527.29 0 267.58 0 0 Z " fill="#091631" transform="translate(0,0)"/>
<path d="M0 0 C153 0 153 0 162 2 C164.41298371 2.32071302 166.82985147 2.61379454 169.25 2.875 C176.47805598 3.78124767 183.13114333 5.61385418 190 8 C190 8.66 190 9.32 190 10 C190.6496875 10.08507812 191.299375 10.17015625 191.96875 10.2578125 C196.08788089 11.26636259 199.69035626 13.03926493 203.5 14.875 C204.24636719 15.22691406 204.99273437 15.57882813 205.76171875 15.94140625 C208.83067292 17.40255434 211.80284183 18.88159179 214.71875 20.6328125 C216.9712396 22.06823676 216.9712396 22.06823676 219.5 22.98046875 C226.29406658 25.75117403 231.94571323 30.80130503 237 36 C238.3921875 36.8353125 238.3921875 36.8353125 239.8125 37.6875 C240.534375 38.120625 241.25625 38.55375 242 39 C242 39.66 242 40.32 242 41 C242.99 41.33 243.98 41.66 245 42 C246.6484375 43.63671875 246.6484375 43.63671875 248.375 45.6875 C248.98859375 46.409375 249.6021875 47.13125 250.234375 47.875 C251.70259852 49.64206548 253.16515906 51.41351608 254.625 53.1875 C256.9552687 56.04947621 256.9552687 56.04947621 259.6875 58.5625 C262.00106925 61.00112705 263.00211575 62.82491375 264 66 C264.66 66 265.32 66 266 66 C267.54733314 68.18060462 268.97558199 70.35208906 270.375 72.625 C271.15317339 73.86748352 271.93181559 75.10967355 272.7109375 76.3515625 C273.28678589 77.27980835 273.28678589 77.27980835 273.87426758 78.22680664 C274.88372192 79.81684501 275.95578886 81.36672303 277.03515625 82.91015625 C279.46267266 86.72758266 281.25840847 90.67247494 283.0625 94.8125 C283.40087891 95.56853516 283.73925781 96.32457031 284.08789062 97.10351562 C286.3839655 102.3129853 288.28354607 107.57444127 290 113 C290.215354 113.66443115 290.43070801 114.3288623 290.65258789 115.01342773 C295.19178017 129.04702376 299.10609982 142.60534493 299.23828125 157.46484375 C299.24793915 158.36748459 299.25759705 159.27012543 299.26754761 160.20011902 C299.29231971 163.11262124 299.30493427 166.02490386 299.3125 168.9375 C299.31545074 169.9264325 299.31840149 170.91536499 299.32144165 171.93426514 C299.33763281 195.72753115 296.74822186 217.50355628 286 239 C285.649375 239.928125 285.29875 240.85625 284.9375 241.8125 C284 244 284 244 282 245 C281.27306096 246.97888961 280.60183749 248.97954558 280 251 C279.34 251 278.68 251 278 251 C277.34 253.31 276.68 255.62 276 258 C275.34 258 274.68 258 274 258 C274.06574219 258.721875 274.13148438 259.44375 274.19921875 260.1875 C273.70282044 267.19547617 266.92516668 273.35627141 262 278 C261.34 278.99 260.68 279.98 260 281 C259.34 281 258.68 281 258 281 C257.7421875 281.57234375 257.484375 282.1446875 257.21875 282.734375 C255.88634058 285.21128995 254.34943882 287.1341166 252.5 289.25 C251.8915625 289.95640625 251.283125 290.6628125 250.65625 291.390625 C249 293 249 293 247 293 C246.67 293.99 246.34 294.98 246 296 C245.34 296 244.68 296 244 296 C243.67 296.99 243.34 297.98 243 299 C238.54285714 303 238.54285714 303 236 303 C236 303.66 236 304.32 236 305 C234.1640625 306.48046875 234.1640625 306.48046875 231.625 308.1875 C227.52358439 310.96106063 227.52358439 310.96106063 223.49609375 313.83984375 C219.180723 317.00537253 215.06001083 319.52778424 210.125 321.625 C206.04387726 323.34704867 206.04387726 323.34704867 203 326.5 C198.05692907 332.67883867 188.85759087 334.51751928 181.5 336.6875 C180.84435059 336.88988281 180.18870117 337.09226562 179.51318359 337.30078125 C121.85100981 353.33661173 59.85043145 341 0 341 C0 228.47 0 115.94 0 0 Z " fill="#105492" transform="translate(305,139)"/>
<path d="M0 0 C19.79327546 -0.04676934 39.58653967 -0.08201302 59.37985897 -0.10362434 C68.57072232 -0.11392661 77.7615513 -0.12796687 86.95239258 -0.15087891 C94.96531576 -0.17084492 102.97821404 -0.18372406 110.99116141 -0.18817699 C115.23195674 -0.19077893 119.47268084 -0.19687273 123.71345329 -0.21146011 C127.70986525 -0.2250948 131.70617701 -0.2292108 135.70261002 -0.22621536 C137.16464979 -0.2267629 138.62669312 -0.23070515 140.08871269 -0.23841095 C147.7322133 -0.27670096 154.60811677 0.01720017 162 2 C164.41298371 2.32071302 166.82985147 2.61379454 169.25 2.875 C176.47805598 3.78124767 183.13114333 5.61385418 190 8 C190 8.66 190 9.32 190 10 C190.6496875 10.08507812 191.299375 10.17015625 191.96875 10.2578125 C196.08788089 11.26636259 199.69035626 13.03926493 203.5 14.875 C204.24636719 15.22691406 204.99273437 15.57882813 205.76171875 15.94140625 C208.83067292 17.40255434 211.80284183 18.88159179 214.71875 20.6328125 C216.9712396 22.06823676 216.9712396 22.06823676 219.5 22.98046875 C226.29406658 25.75117403 231.94571323 30.80130503 237 36 C238.3921875 36.8353125 238.3921875 36.8353125 239.8125 37.6875 C240.534375 38.120625 241.25625 38.55375 242 39 C242 39.66 242 40.32 242 41 C242.99 41.33 243.98 41.66 245 42 C246.6484375 43.63671875 246.6484375 43.63671875 248.375 45.6875 C248.98859375 46.409375 249.6021875 47.13125 250.234375 47.875 C251.70259852 49.64206548 253.16515906 51.41351608 254.625 53.1875 C256.9552687 56.04947621 256.9552687 56.04947621 259.6875 58.5625 C262.00106925 61.00112705 263.00211575 62.82491375 264 66 C264.66 66 265.32 66 266 66 C267.54733314 68.18060462 268.97558199 70.35208906 270.375 72.625 C271.15317339 73.86748352 271.93181559 75.10967355 272.7109375 76.3515625 C273.28678589 77.27980835 273.28678589 77.27980835 273.87426758 78.22680664 C274.88372192 79.81684501 275.95578886 81.36672303 277.03515625 82.91015625 C279.46267266 86.72758266 281.25840847 90.67247494 283.0625 94.8125 C283.40087891 95.56853516 283.73925781 96.32457031 284.08789062 97.10351562 C286.3839655 102.3129853 288.28354607 107.57444127 290 113 C290.215354 113.66443115 290.43070801 114.3288623 290.65258789 115.01342773 C295.19178017 129.04702376 299.10609982 142.60534493 299.23828125 157.46484375 C299.24793915 158.36748459 299.25759705 159.27012543 299.26754761 160.20011902 C299.29231971 163.11262124 299.30493427 166.02490386 299.3125 168.9375 C299.31545074 169.9264325 299.31840149 170.91536499 299.32144165 171.93426514 C299.33763281 195.72753115 296.74822186 217.50355628 286 239 C285.649375 239.928125 285.29875 240.85625 284.9375 241.8125 C284 244 284 244 282 245 C281.27306096 246.97888961 280.60183749 248.97954558 280 251 C279.34 251 278.68 251 278 251 C277.34 253.31 276.68 255.62 276 258 C275.34 258 274.68 258 274 258 C274.06574219 258.721875 274.13148438 259.44375 274.19921875 260.1875 C273.70282044 267.19547617 266.92516668 273.35627141 262 278 C261.34 278.99 260.68 279.98 260 281 C259.34 281 258.68 281 258 281 C257.7421875 281.57234375 257.484375 282.1446875 257.21875 282.734375 C255.88634058 285.21128995 254.34943882 287.1341166 252.5 289.25 C251.8915625 289.95640625 251.283125 290.6628125 250.65625 291.390625 C249 293 249 293 247 293 C246.67 293.99 246.34 294.98 246 296 C245.34 296 244.68 296 244 296 C243.67 296.99 243.34 297.98 243 299 C238.54285714 303 238.54285714 303 236 303 C236 303.66 236 304.32 236 305 C234.1640625 306.48046875 234.1640625 306.48046875 231.625 308.1875 C227.67592014 310.84180801 227.67592014 310.84180801 223.84765625 313.6640625 C212.38251257 322.41323182 197.71642294 328.70495847 184 333 C182.82050781 333.39058594 182.82050781 333.39058594 181.6171875 333.7890625 C166.98122865 338.44809763 152.78045117 340.15505896 137.50585938 340.11352539 C136.04656984 340.11324294 134.58728017 340.11340238 133.12799072 340.1139679 C129.18642881 340.11425362 125.24489762 340.10839325 121.30334282 340.10139394 C117.17671745 340.09512297 113.05009131 340.09455365 108.92346191 340.09336853 C101.11804239 340.09026623 93.31263694 340.08206772 85.50722361 340.07201904 C76.61724545 340.06082366 67.7272666 340.05533883 58.83728313 340.05032361 C40.55818079 340.03988416 22.27909153 340.0223061 4 340 C9.49750731 333.29720862 15.48485389 328.38383523 23 324 C24.67197251 322.67332616 26.33735155 321.33834065 28 320 C30.57347251 318.00792815 33.16220736 316.0359182 35.75 314.0625 C37.26434575 312.90627991 38.77866797 311.75002899 40.29296875 310.59375 C41.45578369 309.70623047 41.45578369 309.70623047 42.64208984 308.80078125 C44.96711121 307.0251178 47.29050543 305.24734961 49.61328125 303.46875 C50.35932617 302.89761475 51.10537109 302.32647949 51.87402344 301.73803711 C53.28762135 300.65576107 54.70104522 299.57325765 56.11425781 298.49047852 C57.39299679 297.51190635 58.67958365 296.54346446 59.97546387 295.58770752 C61.9896652 294.08349846 61.9896652 294.08349846 63.51983643 292.42301941 C70.1870846 286.05903696 78.79119073 287.18263049 87.38671875 287.265625 C89.09293375 287.25944041 90.79914041 287.25033566 92.50532532 287.23846436 C96.98693083 287.21379677 101.46778879 287.22292414 105.94940186 287.24102783 C113.10227132 287.26446627 120.25509192 287.236962 127.40790749 287.20830536 C129.88542539 287.20325504 132.36252622 287.21295804 134.8400116 287.22515869 C146.92814709 287.24517607 158.64485331 286.53358469 170 282 C170.6909375 281.72414063 171.381875 281.44828125 172.09375 281.1640625 C185.7568508 275.37209586 198.38290198 267.94293074 209.125 257.6875 C209.82149658 257.02669434 210.51799316 256.36588867 211.2355957 255.68505859 C218.68289354 248.5228122 224.28878012 241.183561 229 232 C229.65996113 230.76552067 230.32013511 229.53115511 230.98046875 228.296875 C235.17831759 220.32711572 238.2840014 212.90031274 240 204 C240.56076477 201.41628944 241.12328638 198.83295961 241.6875 196.25 C242.12707243 194.16710295 242.56533483 192.08392663 243 190 C243.66 190 244.32 190 245 190 C244.9302572 185.51950665 244.84189619 181.03984826 244.73754883 176.56005859 C244.70465054 175.04160222 244.6765141 173.52303384 244.65356445 172.00439453 C244.5073651 162.57920233 243.75597448 154.09178973 241 145 C239.71040493 140.05063835 238.5523644 135.07532731 237.46484375 130.078125 C237.00956957 128.04278161 236.51438636 126.0211287 236 124 C235.34 124 234.68 124 234 124 C233.67128906 123.05640625 233.67128906 123.05640625 233.3359375 122.09375 C231.29257363 116.57832881 228.94315012 112.3333703 225.26171875 107.76171875 C223.70063093 105.58199551 223.1667089 103.66734244 223 101 C222.01 100.67 221.02 100.34 220 100 C216 95.54285714 216 95.54285714 216 93 C215.01 92.67 214.02 92.34 213 92 C211.4921875 90.43359375 211.4921875 90.43359375 209.875 88.4375 C195.79748907 72.02347274 176.04611917 62.16788435 155 58 C155 57.34 155 56.68 155 56 C154.2265625 56.01160156 153.453125 56.02320313 152.65625 56.03515625 C151.6146875 56.04417969 150.573125 56.05320313 149.5 56.0625 C148.4790625 56.07410156 147.458125 56.08570313 146.40625 56.09765625 C143 56 143 56 139.73828125 55.5 C133.1226677 54.65151384 126.43846104 54.87734395 119.78125 54.90234375 C118.31294808 54.90421183 116.84464554 54.90563389 115.37634277 54.90663147 C111.53607422 54.91042591 107.69584426 54.92022951 103.85559082 54.93133545 C99.92717002 54.94161608 95.99874291 54.94614326 92.0703125 54.95117188 C84.38019085 54.96185492 76.69010086 54.97889386 69 55 C69 54.34 69 53.68 69 53 C67.35 52.34 65.7 51.68 64 51 C64 50.34 64 49.68 64 49 C63.47921875 48.77054688 62.9584375 48.54109375 62.421875 48.3046875 C59.1455849 46.53971832 56.22826718 44.34165515 53.25 42.125 C52.59966797 41.64466309 51.94933594 41.16432617 51.27929688 40.66943359 C45.67898134 36.52536057 40.10505522 32.34543982 34.54394531 28.14892578 C33.60953613 27.44485596 33.60953613 27.44485596 32.65625 26.7265625 C31.75519531 26.0464209 31.75519531 26.0464209 30.8359375 25.35253906 C28.92961191 23.94814495 26.98342359 22.61310683 25.03125 21.2734375 C24.0309375 20.52320313 23.030625 19.77296875 22 19 C22 18.34 22 17.68 22 17 C21.46375 16.7525 20.9275 16.505 20.375 16.25 C17.4374005 14.703895 14.73993909 12.8645975 12 11 C10.41798348 9.93554032 8.83458651 8.87313014 7.25 7.8125 C6.49203125 7.30332031 5.7340625 6.79414063 4.953125 6.26953125 C3.03478664 4.9705229 3.03478664 4.9705229 1 4 C1.17015625 4.52464844 1.3403125 5.04929688 1.515625 5.58984375 C3.30203406 11.30065145 4.828236 17.06450115 6.25 22.875 C6.43723633 23.61226318 6.62447266 24.34952637 6.81738281 25.10913086 C7.70115795 28.80011718 8.1123239 31.37743161 7 35 C6.67 32.69 6.34 30.38 6 28 C5.34 28 4.68 28 4 28 C3.79503906 26.79601562 3.59007812 25.59203125 3.37890625 24.3515625 C3.10693641 22.77601308 2.83479193 21.20049379 2.5625 19.625 C2.42779297 18.8309375 2.29308594 18.036875 2.15429688 17.21875 C1.48582411 12.98605017 1.48582411 12.98605017 0 9 C-0.06950541 7.45976004 -0.08452357 5.91665012 -0.0625 4.375 C-0.05347656 3.55773437 -0.04445313 2.74046875 -0.03515625 1.8984375 C-0.02355469 1.27195313 -0.01195312 0.64546875 0 0 Z " fill="#0991BD" transform="translate(305,139)"/>
<path d="M0 0 C7.95508538 -0.07010356 15.91003759 -0.12311281 23.8653574 -0.15543652 C27.56098554 -0.17096526 31.25639942 -0.19196316 34.9519043 -0.22631836 C38.53108198 -0.25937658 42.11005612 -0.2769486 45.68937492 -0.28463173 C47.69138692 -0.29271628 49.69331922 -0.31605727 51.69520569 -0.33988953 C64.24423811 -0.34214598 76.34815027 0.91153885 87 8 C87.88171875 8.53882813 88.7634375 9.07765625 89.671875 9.6328125 C103.07458667 17.88917908 116.85731417 27.57194251 122 43 C122.66 43 123.32 43 124 43 C127.10429554 48.78527805 129.40366169 54.33958217 129 61 C129.66 61 130.32 61 131 61 C131.48377991 62.85296835 131.96178636 64.70744441 132.4375 66.5625 C132.70433594 67.59503906 132.97117187 68.62757813 133.24609375 69.69140625 C134.72986723 76.20309609 135.19288504 82.47649374 135.1875 89.125 C135.18814453 89.95233643 135.18878906 90.77967285 135.18945312 91.63208008 C135.1302715 98.57448846 134.37046581 105.18437984 133 112 C132.34 112 131.68 112 131 112 C131 113.32 131 114.64 131 116 C130.34 116 129.68 116 129 116 C128.96132813 116.85271484 128.96132813 116.85271484 128.921875 117.72265625 C128.49565767 123.52502403 127.20178217 127.1456851 124 132 C123.34 132 122.68 132 122 132 C121.505 134.97 121.505 134.97 121 138 C120.01 138.33 119.02 138.66 118 139 C116.70503853 141.18524748 115.80074898 143.47191032 114.8125 145.8125 C112.79986132 149.35196803 110.47406328 151.72049769 107.5234375 154.484375 C105.89597348 155.94249846 105.89597348 155.94249846 105 158 C102.71484375 158.8515625 102.71484375 158.8515625 99.9375 159.625 C99.01839844 159.88539063 98.09929687 160.14578125 97.15234375 160.4140625 C96.44207031 160.60742188 95.73179687 160.80078125 95 161 C95 161.66 95 162.32 95 163 C89.94663005 167.24942473 84.60079829 169.58330985 78.4765625 171.984375 C76.09737833 172.77397704 76.09737833 172.77397704 75 174 C64.33668444 176.05178965 53.81759649 176.23833138 43 176 C42.505 172.535 42.505 172.535 42 169 C41.34 169 40.68 169 40 169 C38.82428549 165.32589215 38.92633254 161.83070817 39 158 C38.34 158 37.68 158 37 158 C30.67968786 134.27046319 30.67968786 134.27046319 28.73828125 124.03515625 C28.04226778 120.85250498 28.04226778 120.85250498 26.5390625 117.39453125 C24.05926072 111.00085292 23.53237075 104.13112077 22.62695312 97.375 C21.73809379 91.26083791 20.4079693 85.98628938 17.9519043 80.31835938 C16.49979786 76.78175955 15.68009766 73.16545219 14.875 69.4375 C14.71902344 68.74720703 14.56304687 68.05691406 14.40234375 67.34570312 C13.76154235 64.49916797 13.14007901 61.64864705 12.52416992 58.79663086 C11.3439987 53.38599066 9.99486538 48.03646367 8.5625 42.6875 C8.11935348 41.01443892 7.67664437 39.34126192 7.234375 37.66796875 C7.02232422 36.86665527 6.81027344 36.0653418 6.59179688 35.23974609 C4.56924567 27.58509068 2.72093151 19.99511179 1.4296875 12.1796875 C1.09351123 9.96554095 1.09351123 9.96554095 0 8 C-0.13415472 5.3276379 -0.04318541 2.67749512 0 0 Z " fill="#091732" transform="translate(377,194)"/>
<path d="M0 0 C1.19625 0.350625 2.3925 0.70125 3.625 1.0625 C8.38272374 3.79378585 10.85914187 7.59342292 14 12 C15.1446875 13.299375 15.1446875 13.299375 16.3125 14.625 C22.29103426 23.0392334 20.91513685 36.37773696 19.5703125 46.109375 C17.16051654 55.45105315 11.22813497 63.12406817 3 68 C-0.48864534 69.70375702 -2.0124556 70 -6 70 C-6 70.66 -6 71.32 -6 72 C-13.50001236 73.62162429 -21.49998764 73.62162429 -29 72 C-29 71.34 -29 70.68 -29 70 C-29.825 69.95875 -30.65 69.9175 -31.5 69.875 C-39.63663635 67.84084091 -44.15671096 61.94415438 -48.75 55.26953125 C-50 53 -50 53 -50 50 C-50.9590625 49.7215625 -50.9590625 49.7215625 -51.9375 49.4375 C-54 48 -54 48 -54.62109375 44.9609375 C-55.03070817 40.67898883 -55.14736264 36.4848546 -55.125 32.1875 C-55.12886719 31.42501953 -55.13273438 30.66253906 -55.13671875 29.87695312 C-55.12677462 24.25354925 -55.12677462 24.25354925 -54 22 C-53.34 22 -52.68 22 -52 22 C-51.87625 21.0925 -51.7525 20.185 -51.625 19.25 C-50.68852753 14.38034314 -49.66391055 12.33931959 -45.625 9.5 C-45.00367188 9.08234375 -44.38234375 8.6646875 -43.7421875 8.234375 C-41.81890657 6.94503694 -41.81890657 6.94503694 -39.75 4.75 C-38 3 -38 3 -35 2 C-34.67 1.34 -34.34 0.68 -34 0 C-23.48709919 -3.31986341 -10.52018623 -3.41195229 0 0 Z " fill="#09BAD9" transform="translate(597,551)"/>
<path d="M0 0 C5.26526855 -0.07457346 10.53022455 -0.12880098 15.79589844 -0.16479492 C17.58436443 -0.17981184 19.37279403 -0.20023158 21.16113281 -0.22631836 C23.74293031 -0.26301615 26.32423779 -0.27979745 28.90625 -0.29296875 C29.69616333 -0.30845261 30.48607666 -0.32393646 31.29992676 -0.33988953 C36.85717666 -0.34154601 40.8927829 0.79656108 46 3 C47.36125 3.57814453 47.36125 3.57814453 48.75 4.16796875 C49.4925 4.50441406 50.235 4.84085938 51 5.1875 C51.763125 5.53167969 52.52625 5.87585938 53.3125 6.23046875 C53.869375 6.48441406 54.42625 6.73835937 55 7 C55 7.66 55 8.32 55 9 C55.99 9.33 56.98 9.66 58 10 C60.04424145 12.79213466 61.50002007 15.88839115 63 19 C63.32613281 19.67160156 63.65226562 20.34320312 63.98828125 21.03515625 C67.16597826 28.85138728 67.56285533 38.98985885 65.05078125 47.04296875 C62.69318292 51.9589703 59.59215592 55.93519198 56 60 C55.505 60.886875 55.01 61.77375 54.5 62.6875 C52.69750661 65.46634398 50.95422069 66.56076428 48 68 C47.34 68 46.68 68 46 68 C46 68.66 46 69.32 46 70 C40.0087512 71.54769527 34.46141539 72.29065257 28.28125 72.23046875 C27.10532288 72.22978142 27.10532288 72.22978142 25.90563965 72.2290802 C24.26878319 72.22608675 22.63192882 72.21828921 20.99511719 72.20581055 C18.47841454 72.18734159 15.96207643 72.18530272 13.4453125 72.18554688 C11.84895513 72.18063848 10.25260025 72.17481315 8.65625 72.16796875 C7.52515808 72.16629951 7.52515808 72.16629951 6.37121582 72.16459656 C1.11612107 72.11612107 1.11612107 72.11612107 0 71 C-0.09432985 68.79132169 -0.11742431 66.57958479 -0.11352539 64.36889648 C-0.11367142 63.67624695 -0.11381744 62.98359741 -0.1139679 62.2699585 C-0.11326874 59.97030554 -0.10547628 57.67073263 -0.09765625 55.37109375 C-0.09579208 53.78068588 -0.09436817 52.19027743 -0.09336853 50.59986877 C-0.08954329 46.4060407 -0.07971295 42.21224705 -0.06866455 38.01843262 C-0.05845057 33.74211086 -0.05387094 29.46578356 -0.04882812 25.18945312 C-0.03809069 16.79295292 -0.02101419 8.39648074 0 0 Z " fill="#09BAD9" transform="translate(205,550)"/>
<path d="M0 0 C5.94 0 11.88 0 18 0 C18 24.75 18 49.5 18 75 C11.73 75 5.46 75 -1 75 C-3.99615866 72.00384134 -4.76463033 69.99845478 -6.125 66.1015625 C-7.0010024 63.99759245 -8.00214006 62.43545904 -9.375 60.625 C-12.95909537 55.89704441 -17 50.04883936 -17 44 C-17.721875 43.855625 -18.44375 43.71125 -19.1875 43.5625 C-22.97238732 41.45978482 -24.01561085 38.80535251 -25.88671875 34.99609375 C-26.84081779 32.84487731 -26.84081779 32.84487731 -29 32 C-28.99214478 33.90060181 -28.99214478 33.90060181 -28.98413086 35.83959961 C-28.96608486 40.5228607 -28.95456947 45.20611871 -28.94506836 49.8894043 C-28.94002722 51.91968298 -28.93319443 53.94995802 -28.92456055 55.98022461 C-28.91248533 58.89177347 -28.90676966 61.8032745 -28.90234375 64.71484375 C-28.89718246 65.6283812 -28.89202118 66.54191864 -28.88670349 67.48313904 C-28.88650832 69.65575427 -28.93788195 71.82827296 -29 74 C-30 75 -30 75 -31.76586914 75.11352539 C-32.51473389 75.10828857 -33.26359863 75.10305176 -34.03515625 75.09765625 C-34.84404297 75.09443359 -35.65292969 75.09121094 -36.48632812 75.08789062 C-37.33646484 75.07951172 -38.18660156 75.07113281 -39.0625 75.0625 C-39.91650391 75.05798828 -40.77050781 75.05347656 -41.65039062 75.04882812 C-43.76695663 75.03700373 -45.88348685 75.01906769 -48 75 C-48.02312484 65.49925675 -48.0409158 55.99852312 -48.05181217 46.49775791 C-48.05704069 42.08662996 -48.06413777 37.6755212 -48.07543945 33.2644043 C-48.08626944 29.01098885 -48.09227707 24.75759191 -48.09487724 20.50416374 C-48.09673129 18.87778367 -48.10035152 17.25140466 -48.10573006 15.62503242 C-48.11294198 13.35489807 -48.11399088 11.08484115 -48.11352539 8.81469727 C-48.115746 7.52008072 -48.11796661 6.22546417 -48.12025452 4.89161682 C-48 2 -48 2 -47 1 C-44.23252818 0.79214267 -41.52089342 0.67537988 -38.75 0.625 C-37.98558594 0.58761719 -37.22117187 0.55023437 -36.43359375 0.51171875 C-32.09202513 0.44423323 -30.49228093 0.61248655 -26.953125 3.3984375 C-25 6 -25 6 -25 8 C-24.34 8 -23.68 8 -23 8 C-22.5875 9.175625 -22.175 10.35125 -21.75 11.5625 C-19.80035335 16.71904207 -17.70030537 21.34564883 -13.6875 25.25 C-10.33135681 28.68419303 -8.04470655 32.48772031 -5.55078125 36.57421875 C-4.08539498 39.05787061 -4.08539498 39.05787061 -2 41 C-1.96241577 39.1902771 -1.96241577 39.1902771 -1.92407227 37.34399414 C-1.83017477 32.88424339 -1.72991167 28.42465487 -1.62768555 23.96508789 C-1.58426959 22.03185815 -1.54259958 20.09858841 -1.50268555 18.1652832 C-1.44514369 15.39261798 -1.3814038 12.62015543 -1.31640625 9.84765625 C-1.29969376 8.97786636 -1.28298126 8.10807648 -1.26576233 7.21192932 C-1.11387171 1.11387171 -1.11387171 1.11387171 0 0 Z " fill="#09BAD9" transform="translate(686,548)"/>
<path d="M0 0 C0 0.66 0 1.32 0 2 C0.94875 1.95875 1.8975 1.9175 2.875 1.875 C6 2 6 2 8 4 C8.763125 4.28875 9.52625 4.5775 10.3125 4.875 C13.44944818 6.1881411 15.56063733 7.6283974 18 10 C19.37435825 13.91163502 19.0144599 17.88856771 19 22 C15.89632503 22.14515677 12.79351973 22.23400853 9.6875 22.3125 C8.80642578 22.35439453 7.92535156 22.39628906 7.01757812 22.43945312 C4.58198315 22.48575721 2.38893348 22.48309672 0 22 C-1.98046875 19.54296875 -1.98046875 19.54296875 -3 17 C-5.22890995 15.88554502 -6.53055106 15.83519714 -9 15.8125 C-9.70125 15.79832031 -10.4025 15.78414062 -11.125 15.76953125 C-13.24524938 15.83487677 -13.24524938 15.83487677 -15 18 C-15.34151571 21.9274307 -15.22118368 24.70271491 -13 28 C-10.99967123 28.77726622 -10.99967123 28.77726622 -8.625 29 C1.92982694 30.75659204 11.46013536 33.52888108 18.4375 41.9375 C21.51384291 47.87983758 20.59478864 55.79976421 19.68359375 62.234375 C17.80564329 67.08485276 11.4278287 70.72625013 7 73 C3.9467297 73.94631859 1.20421906 74.1170989 -1.984375 74.09765625 C-2.91894531 74.09443359 -3.85351562 74.09121094 -4.81640625 74.08789062 C-5.78449219 74.07951172 -6.75257813 74.07113281 -7.75 74.0625 C-8.73355469 74.05798828 -9.71710938 74.05347656 -10.73046875 74.04882812 C-13.15370791 74.03706483 -15.57682273 74.02062684 -18 74 C-18 73.34 -18 72.68 -18 72 C-18.85078125 71.814375 -18.85078125 71.814375 -19.71875 71.625 C-24.70281672 70.25950227 -29.5252754 68.19448409 -32.47265625 63.80859375 C-34.26192307 59.91581612 -35 57.34881156 -35 53 C-28.73 53 -22.46 53 -16 53 C-13 59 -13 59 -13 61 C-11.22844346 60.88570603 -9.45773771 60.75816963 -7.6875 60.625 C-6.20830078 60.52058594 -6.20830078 60.52058594 -4.69921875 60.4140625 C-1.78471567 60.16134528 -1.78471567 60.16134528 1 58 C1.25015873 54.41642759 1.25015873 54.41642759 1 51 C-6.03253813 46.74430085 -6.03253813 46.74430085 -14 45 C-14 44.34 -14 43.68 -14 43 C-15.216875 42.896875 -16.43375 42.79375 -17.6875 42.6875 C-24.0578727 41.86877252 -27.79009354 38.76384152 -32 34 C-35.97527957 27.24494059 -36.49286824 20.64601301 -35 13 C-31.49347545 7.45675161 -25.99441478 2.22975845 -19.55859375 0.31640625 C-13.08136286 -0.48459482 -6.50950263 -0.19972338 0 0 Z " fill="#09B5D4" transform="translate(391,548)"/>
<path d="M0 0 C14.85 0 29.7 0 45 0 C45 4.62 45 9.24 45 14 C44 15 44 15 41.49975586 15.11352539 C40.41573486 15.10828857 39.33171387 15.10305176 38.21484375 15.09765625 C37.04501953 15.09443359 35.87519531 15.09121094 34.66992188 15.08789062 C33.43822266 15.07951172 32.20652344 15.07113281 30.9375 15.0625 C29.08415039 15.05573242 29.08415039 15.05573242 27.19335938 15.04882812 C24.12888587 15.03699618 21.06443707 15.01906008 18 15 C18.33 19.29 18.66 23.58 19 28 C26.59 28.33 34.18 28.66 42 29 C42 33.62 42 38.24 42 43 C34.08 43 26.16 43 18 43 C18.33 47.95 18.66 52.9 19 58 C32.365 58.495 32.365 58.495 46 59 C46 63.95 46 68.9 46 74 C30.82 74 15.64 74 0 74 C0 49.58 0 25.16 0 0 Z " fill="#09BDDC" transform="translate(291,549)"/>
<path d="M0 0 C1.11785889 -0.00315216 2.23571777 -0.00630432 3.38745117 -0.009552 C5.21240112 -0.00651566 5.21240112 -0.00651566 7.07421875 -0.00341797 C8.31341064 -0.00437469 9.55260254 -0.00533142 10.8293457 -0.00631714 C13.45560156 -0.00699921 16.08176508 -0.00564085 18.70800781 -0.00097656 C22.08100589 0.00472073 25.4539244 0.00144151 28.82691956 -0.00454903 C32.03435552 -0.00902317 35.24178175 -0.00589429 38.44921875 -0.00341797 C39.66585205 -0.0054422 40.88248535 -0.00746643 42.13598633 -0.009552 C43.81277466 -0.00482376 43.81277466 -0.00482376 45.5234375 0 C46.51303467 0.00079559 47.50263184 0.00159119 48.5222168 0.00241089 C50.76171875 0.12939453 50.76171875 0.12939453 51.76171875 1.12939453 C51.90598489 5.79784681 51.8038029 10.45805406 51.76171875 15.12939453 C45.49171875 15.45939453 39.22171875 15.78939453 32.76171875 16.12939453 C32.43171875 35.59939453 32.10171875 55.06939453 31.76171875 75.12939453 C25.82171875 75.12939453 19.88171875 75.12939453 13.76171875 75.12939453 C12.76171875 74.12939453 12.76171875 74.12939453 12.64146423 71.80723572 C12.64479515 70.26502098 12.64479515 70.26502098 12.64819336 68.69165039 C12.64826889 67.53052231 12.64834442 66.36939423 12.64842224 65.17308044 C12.65358353 63.90956253 12.65874481 62.64604462 12.6640625 61.34423828 C12.66547745 60.05828262 12.6668924 58.77232697 12.66835022 57.44740295 C12.67217457 54.02296011 12.68200413 50.59855944 12.6930542 47.1741333 C12.70327011 43.68201264 12.70784822 40.18988519 12.71289062 36.69775391 C12.72362649 29.841615 12.74122261 22.98551113 12.76171875 16.12939453 C6.49171875 16.12939453 0.22171875 16.12939453 -6.23828125 16.12939453 C-6.25890625 13.67501953 -6.27953125 11.22064453 -6.30078125 8.69189453 C-6.30988525 7.91789307 -6.31898926 7.1438916 -6.32836914 6.34643555 C-6.33553038 4.60717736 -6.28852827 2.8679415 -6.23828125 1.12939453 C-4.53262507 -0.57626165 -2.3309463 0.00187398 0 0 Z " fill="#0ABBDA" transform="translate(434.23828125,547.87060546875)"/>
<path d="M0 0 C4.36361992 2.4341835 6.26683463 5.52835375 8.09375 10.16796875 C8.48241562 13.22207349 8.46894204 16.21855111 8.40625 19.29296875 C8.40947266 20.09089844 8.41269531 20.88882813 8.41601562 21.7109375 C8.36949365 26.77760332 8.06492192 30.05114373 4.5078125 33.87109375 C3.91742187 34.3815625 3.32703125 34.89203125 2.71875 35.41796875 C2.13351562 35.93875 1.54828125 36.45953125 0.9453125 36.99609375 C-0.90625 38.16796875 -0.90625 38.16796875 -4.90625 38.16796875 C-4.90625 38.82796875 -4.90625 39.48796875 -4.90625 40.16796875 C-18.16567962 40.75582524 -18.16567962 40.75582524 -23.90625 37.16796875 C-26.15625 34.35546875 -26.15625 34.35546875 -27.90625 31.16796875 C-28.48375 30.28109375 -29.06125 29.39421875 -29.65625 28.48046875 C-32.04613496 22.14727359 -31.65825378 14.59075736 -29.8046875 8.08984375 C-27.987062 4.20170572 -25.08891239 1.01039106 -21.90625 -1.83203125 C-14.35018577 -4.35071933 -7.17660905 -3.04073857 0 0 Z " fill="#091B36" transform="translate(591.90625,566.83203125)"/>
<path d="M0 0 C1.25049133 -0.00281982 2.50098267 -0.00563965 3.78936768 -0.00854492 C5.18823256 -0.00660023 6.58709731 -0.00455204 7.98596191 -0.00241089 C9.44932092 -0.00376498 10.91267958 -0.00554495 12.3760376 -0.00772095 C16.36406723 -0.01229758 20.35207113 -0.01050394 24.34010124 -0.00734186 C28.5132746 -0.00481562 32.6864457 -0.0071569 36.85961914 -0.00872803 C43.87764889 -0.01055056 50.89566814 -0.00814291 57.91369629 -0.00338745 C66.01432566 0.0020384 74.11492979 0.0003051 82.21555853 -0.00521386 C89.17192725 -0.00976286 96.12828841 -0.01038628 103.08465815 -0.00777519 C107.23822091 -0.00622006 111.39177186 -0.00599733 115.54533386 -0.00931168 C119.45884622 -0.01221575 123.37232636 -0.01016834 127.28583527 -0.00441742 C128.71723121 -0.00310264 130.14862989 -0.00346198 131.58002472 -0.00568008 C138.87243186 -0.01593193 146.02649257 0.0271225 153.24572754 1.12698364 C153.57572754 1.45698364 153.90572754 1.78698364 154.24572754 2.12698364 C157.01493393 2.66368651 159.79517839 3.09187105 162.58166504 3.52932739 C165.24572754 4.12698364 165.24572754 4.12698364 168.24572754 6.12698364 C165.28684081 5.81913987 162.32869587 5.5059279 159.37072754 5.18948364 C158.52896973 5.10247192 157.68721191 5.01546021 156.81994629 4.92581177 C156.01428223 4.83880005 155.20861816 4.75178833 154.37854004 4.66213989 C153.63491211 4.58358765 152.89128418 4.5050354 152.12512207 4.42410278 C150.24572754 4.12698364 150.24572754 4.12698364 148.24572754 3.12698364 C97.75572754 2.79698364 47.26572754 2.46698364 -4.75427246 2.12698364 C-4.75427246 114.65698364 -4.75427246 227.18698364 -4.75427246 343.12698364 C48.70572754 342.79698364 102.16572754 342.46698364 157.24572754 342.12698364 C152.36384246 344.56792618 149.35124882 345.25219719 143.96932983 345.25396729 C141.99639954 345.25819702 141.99639954 345.25819702 139.98361206 345.26251221 C138.52264391 345.26056785 137.06167589 345.25851968 135.60070801 345.25637817 C134.06496133 345.25773291 132.52921497 345.25951325 130.99346924 345.26168823 C126.82015104 345.26625322 122.64685752 345.26447703 118.47353888 345.26130915 C114.112455 345.25878165 109.75137327 345.26112409 105.39028931 345.26269531 C98.0681724 345.26451548 90.74606557 345.26211429 83.4239502 345.25735474 C74.94707968 345.25190835 66.4702332 345.25367812 57.99336326 345.25918114 C50.72455542 345.26371178 43.45575483 345.26436319 36.18694603 345.26174247 C31.84140194 345.26017995 27.49586916 345.25998534 23.15032578 345.26327896 C19.06773242 345.2661571 14.98517023 345.26418306 10.90258026 345.2583847 C9.40009488 345.25705697 7.89760689 345.25745145 6.39512253 345.25964737 C4.35280193 345.26235821 2.31047563 345.25836463 0.26815796 345.25396729 C-1.45021113 345.25340175 -1.45021113 345.25340175 -3.20329475 345.25282478 C-5.75427246 345.12698364 -5.75427246 345.12698364 -6.75427246 344.12698364 C-6.85269503 342.30348516 -6.87982881 340.47612369 -6.8801136 338.64997101 C-6.88272135 337.45379198 -6.8853291 336.25761294 -6.88801587 335.02518606 C-6.88585335 333.68074116 -6.88359667 332.33629641 -6.8812561 330.99185181 C-6.88240696 329.57689451 -6.88399424 328.16193751 -6.88598335 326.74698114 C-6.89018158 322.84042325 -6.88808377 318.9338896 -6.88499713 315.02733159 C-6.88274524 310.82142673 -6.88622158 306.6155262 -6.88897705 302.40962219 C-6.89343602 294.163004 -6.89245772 285.91639488 -6.88956441 277.66977632 C-6.88731087 270.97072231 -6.88699764 264.27167086 -6.88808823 257.57261658 C-6.88824146 256.62109188 -6.88839469 255.66956719 -6.88855257 254.68920842 C-6.88887228 252.75652468 -6.88919649 250.82384095 -6.88952516 248.89115721 C-6.89238032 230.74581863 -6.88909236 212.60048508 -6.88372479 194.45514733 C-6.87925672 178.86772956 -6.88003264 163.28031924 -6.88464355 147.69290161 C-6.88998868 129.61483497 -6.89210563 111.53677275 -6.88903129 93.45870543 C-6.88871272 91.53292052 -6.88839835 89.60713561 -6.88808823 87.68135071 C-6.88793395 86.73369659 -6.88777968 85.78604246 -6.88762072 84.80967155 C-6.88675538 78.11456328 -6.88821881 71.41945781 -6.89056778 64.72434998 C-6.89336529 56.57114088 -6.89262855 48.41794142 -6.88728704 40.26473343 C-6.88464936 36.10064928 -6.88364607 31.93658123 -6.88693619 27.77249718 C-6.8898978 23.96677034 -6.88830862 20.16107465 -6.88295864 16.35535067 C-6.88183387 14.9724651 -6.88242694 13.58957693 -6.88483442 12.20669299 C-6.88783837 10.33912917 -6.88418501 8.47155807 -6.8801136 6.60399628 C-6.87995125 5.56296548 -6.8797889 4.52193469 -6.87962162 3.44935751 C-6.63556133 -1.07240577 -3.92121052 0.00135194 0 0 Z " fill="#0F4677" transform="translate(309.7542724609375,136.87301635742188)"/>
<path d="M0 0 C5.94 0 11.88 0 18 0 C18 24.09 18 48.18 18 73 C12.06 73 6.12 73 0 73 C0 48.91 0 24.82 0 0 Z " fill="#09B4D3" transform="translate(505,549)"/>
<path d="M0 0 C2.73339329 -0.05922133 5.46549289 -0.10252799 8.19921875 -0.13671875 C8.96971558 -0.15504761 9.7402124 -0.17337646 10.53405762 -0.19226074 C15.72325794 -0.24093992 19.36753528 0.24687777 23.5546875 3.5703125 C29.37670245 9.32938675 30.15725541 13.17728131 30.3125 21.25 C30.3398278 27.54450294 29.61682476 31.77569758 26 37 C24.125 38.8125 24.125 38.8125 22 40 C21.12730469 40.51433594 20.25460938 41.02867187 19.35546875 41.55859375 C15.3887142 43.26258959 12.48720248 43.33439063 8.1875 43.25 C7.50751953 43.24484375 6.82753906 43.2396875 6.12695312 43.234375 C1.15506269 43.15506269 1.15506269 43.15506269 0 42 C-0.08874135 38.89748799 -0.11518455 35.8173188 -0.09765625 32.71484375 C-0.0962413 31.78402481 -0.09482635 30.85320587 -0.09336853 29.8941803 C-0.08775172 26.90858809 -0.0751964 23.92306971 -0.0625 20.9375 C-0.05748716 18.91862087 -0.05292388 16.89974057 -0.04882812 14.88085938 C-0.03777683 9.92054428 -0.02050095 4.96028468 0 0 Z " fill="#091833" transform="translate(222,564)"/>
<path d="M0 0 C0.33 0 0.66 0 1 0 C1 112.86 1 225.72 1 342 C54.79 341.67 108.58 341.34 164 341 C159.11811492 343.44094254 156.10552128 344.12521355 150.72360229 344.12698364 C148.750672 344.13121338 148.750672 344.13121338 146.73788452 344.13552856 C145.27691637 344.13358421 143.81594835 344.13153604 142.35498047 344.12939453 C140.81923379 344.13074926 139.28348744 344.1325296 137.7477417 344.13470459 C133.5744235 344.13926958 129.40112998 344.13749339 125.22781134 344.1343255 C120.86672746 344.13179801 116.50564573 344.13414045 112.14456177 344.13571167 C104.82244486 344.13753183 97.50033803 344.13513065 90.17822266 344.13037109 C81.70135214 344.12492471 73.22450566 344.12669448 64.74763572 344.1321975 C57.47882788 344.13672814 50.21002729 344.13737954 42.9412185 344.13475883 C38.5956744 344.13319631 34.25014162 344.1330017 29.90459824 344.13629532 C25.82200488 344.13917346 21.73944269 344.13719942 17.65685272 344.13140106 C16.15436734 344.13007333 14.65187935 344.13046781 13.14939499 344.13266373 C11.10707439 344.13537457 9.06474809 344.13138099 7.02243042 344.12698364 C5.30406133 344.1264181 5.30406133 344.1264181 3.55097771 344.12584114 C1 344 1 344 0 343 C-0.09752207 341.17554212 -0.12371391 339.34725636 -0.12304783 337.52019405 C-0.12503888 336.32339832 -0.12702993 335.12660259 -0.12908131 333.89354032 C-0.12622772 332.54840637 -0.12328211 331.20327261 -0.12025452 329.85813904 C-0.12069009 328.44246926 -0.12156475 327.02679956 -0.12284368 325.6111303 C-0.1250913 321.70263963 -0.12106374 317.79417611 -0.11606562 313.8856889 C-0.11176511 309.67775986 -0.11320726 305.46983247 -0.1139679 301.26190186 C-0.11449339 293.96528699 -0.11134398 286.66868103 -0.10573006 279.37206841 C-0.09761843 268.82226607 -0.09500018 258.27246805 -0.09374207 247.72266293 C-0.09155101 230.60815631 -0.08488949 213.49365443 -0.07543945 196.37915039 C-0.06626671 179.74959334 -0.0591852 163.12003758 -0.05493164 146.49047852 C-0.05466892 145.46620176 -0.05440619 144.441925 -0.05413551 143.38660955 C-0.05283051 138.24834375 -0.0515668 133.11007794 -0.05032361 127.97181213 C-0.03994934 85.31453813 -0.02232958 42.65726931 0 0 Z " fill="#0C2B53" transform="translate(303,138)"/>
<path d="M0 0 C14.85 0 29.7 0 45 0 C45 4.62 45 9.24 45 14 C44 15 44 15 41.49975586 15.11352539 C40.41573486 15.10828857 39.33171387 15.10305176 38.21484375 15.09765625 C37.04501953 15.09443359 35.87519531 15.09121094 34.66992188 15.08789062 C33.43822266 15.07951172 32.20652344 15.07113281 30.9375 15.0625 C29.08415039 15.05573242 29.08415039 15.05573242 27.19335938 15.04882812 C24.12888587 15.03699618 21.06443707 15.01906008 18 15 C18.33 19.29 18.66 23.58 19 28 C26.59 28.33 34.18 28.66 42 29 C42 33.62 42 38.24 42 43 C34.08 43 26.16 43 18 43 C18.33 47.95 18.66 52.9 19 58 C32.365 58.495 32.365 58.495 46 59 C46 63.95 46 68.9 46 74 C30.82 74 15.64 74 0 74 C0 49.58 0 25.16 0 0 Z M1 1 C1 24.43 1 47.86 1 72 C15.19 72 29.38 72 44 72 C44 68.04 44 64.08 44 60 C35.09 59.67 26.18 59.34 17 59 C17 53.72 17 48.44 17 43 C24.59 42.67 32.18 42.34 40 42 C40 38.04 40 34.08 40 30 C32.41 30 24.82 30 17 30 C17.144375 27.545625 17.28875 25.09125 17.4375 22.5625 C17.50215454 21.4014978 17.50215454 21.4014978 17.56811523 20.21704102 C17.88888889 15.11111111 17.88888889 15.11111111 19 14 C20.85174706 13.84213692 22.7090911 13.74892644 24.56640625 13.68359375 C25.69111328 13.64169922 26.81582031 13.59980469 27.97460938 13.55664062 C29.15861328 13.51732422 30.34261719 13.47800781 31.5625 13.4375 C32.75037109 13.39431641 33.93824219 13.35113281 35.16210938 13.30664062 C38.10792197 13.20016547 41.05394502 13.09954319 44 13 C44 9.04 44 5.08 44 1 C29.81 1 15.62 1 1 1 Z " fill="#098BA9" transform="translate(291,549)"/>
<path d="M0 0 C1.11785889 -0.00315216 2.23571777 -0.00630432 3.38745117 -0.009552 C5.21240112 -0.00651566 5.21240112 -0.00651566 7.07421875 -0.00341797 C8.31341064 -0.00437469 9.55260254 -0.00533142 10.8293457 -0.00631714 C13.45560156 -0.00699921 16.08176508 -0.00564085 18.70800781 -0.00097656 C22.08100589 0.00472073 25.4539244 0.00144151 28.82691956 -0.00454903 C32.03435552 -0.00902317 35.24178175 -0.00589429 38.44921875 -0.00341797 C39.66585205 -0.0054422 40.88248535 -0.00746643 42.13598633 -0.009552 C43.81277466 -0.00482376 43.81277466 -0.00482376 45.5234375 0 C46.51303467 0.00079559 47.50263184 0.00159119 48.5222168 0.00241089 C50.76171875 0.12939453 50.76171875 0.12939453 51.76171875 1.12939453 C51.90598489 5.79784681 51.8038029 10.45805406 51.76171875 15.12939453 C45.49171875 15.45939453 39.22171875 15.78939453 32.76171875 16.12939453 C32.43171875 35.59939453 32.10171875 55.06939453 31.76171875 75.12939453 C25.82171875 75.12939453 19.88171875 75.12939453 13.76171875 75.12939453 C12.76171875 74.12939453 12.76171875 74.12939453 12.64146423 71.80723572 C12.64479515 70.26502098 12.64479515 70.26502098 12.64819336 68.69165039 C12.64826889 67.53052231 12.64834442 66.36939423 12.64842224 65.17308044 C12.65358353 63.90956253 12.65874481 62.64604462 12.6640625 61.34423828 C12.66547745 60.05828262 12.6668924 58.77232697 12.66835022 57.44740295 C12.67217457 54.02296011 12.68200413 50.59855944 12.6930542 47.1741333 C12.70327011 43.68201264 12.70784822 40.18988519 12.71289062 36.69775391 C12.72362649 29.841615 12.74122261 22.98551113 12.76171875 16.12939453 C6.49171875 16.12939453 0.22171875 16.12939453 -6.23828125 16.12939453 C-6.25890625 13.67501953 -6.27953125 11.22064453 -6.30078125 8.69189453 C-6.30988525 7.91789307 -6.31898926 7.1438916 -6.32836914 6.34643555 C-6.33553038 4.60717736 -6.28852827 2.8679415 -6.23828125 1.12939453 C-4.53262507 -0.57626165 -2.3309463 0.00187398 0 0 Z M-5.23828125 2.12939453 C-5.23828125 6.08939453 -5.23828125 10.04939453 -5.23828125 14.12939453 C-4.90828125 14.45939453 -4.57828125 14.78939453 -4.23828125 15.12939453 C2.03171875 15.12939453 8.30171875 15.12939453 14.76171875 15.12939453 C14.76171875 34.26939453 14.76171875 53.40939453 14.76171875 73.12939453 C20.04171875 73.12939453 25.32171875 73.12939453 30.76171875 73.12939453 C31.09171875 53.98939453 31.42171875 34.84939453 31.76171875 15.12939453 C37.70171875 14.79939453 43.64171875 14.46939453 49.76171875 14.12939453 C49.76171875 10.16939453 49.76171875 6.20939453 49.76171875 2.12939453 C31.61171875 2.12939453 13.46171875 2.12939453 -5.23828125 2.12939453 Z " fill="#097390" transform="translate(434.23828125,547.87060546875)"/>
<path d="M0 0 C0.66 0.33 1.32 0.66 2 1 C-5.16986115 8.64785189 -13.85262303 14.6580402 -22.234375 20.890625 C-25.07007922 23.05345026 -27.76828686 25.30867762 -30.40234375 27.7109375 C-32 29 -32 29 -34.36328125 30.40625 C-37.19446951 32.11754601 -39.68211306 34.04147497 -42.25 36.125 C-43.12140625 36.82882812 -43.9928125 37.53265625 -44.890625 38.2578125 C-45.95613156 39.13784199 -47.02282137 40.02282137 -48 41 C-29.0926523 41.04686562 -10.18531651 41.08205986 8.72207737 41.10362434 C17.50248222 41.11390635 26.28285084 41.12790737 35.06323242 41.15087891 C42.72243127 41.1709075 50.38160386 41.18373875 58.04082817 41.18817699 C62.09066805 41.19076845 66.14043284 41.1967942 70.19024849 41.21146011 C74.01431738 41.22519425 77.83828137 41.22919124 81.66237259 41.22621536 C83.054165 41.22675854 84.44596149 41.2306406 85.83773232 41.23841095 C103.36472852 41.33133493 119.78920888 38.83186058 136 32 C138.32870875 31.05107101 140.66223064 30.11388281 143 29.1875 C144.093125 28.74792969 145.18625 28.30835938 146.3125 27.85546875 C149 27 149 27 151 28 C145.39785747 34.23260873 136.31435641 36.39597539 128.5 38.6875 C127.51664673 38.99083252 127.51664673 38.99083252 126.51342773 39.30029297 C107.42240098 44.61330957 86.79859098 43.27145849 67.17836404 43.20278788 C62.94103416 43.1901307 58.70370024 43.18909838 54.46635437 43.18673706 C46.47357654 43.1805657 38.4808546 43.16421487 30.48810118 43.14403808 C21.3753872 43.12154234 12.26267029 43.11065156 3.14993536 43.10064721 C-15.56674123 43.07984384 -34.28336609 43.0447541 -53 43 C-51.59699451 38.79098352 -48.53387374 37.18582789 -45.0625 34.6875 C-43.59262228 33.60830512 -42.12391532 32.52751424 -40.65625 31.4453125 C-39.88925781 30.88102539 -39.12226563 30.31673828 -38.33203125 29.73535156 C-34.52831787 26.90486635 -30.79594878 23.98468397 -27.0625 21.0625 C-20.14926098 15.66091974 -13.19946433 10.31015324 -6.21704102 4.99829102 C-5.54600342 4.48709717 -4.87496582 3.97590332 -4.18359375 3.44921875 C-3.59118896 2.99893311 -2.99878418 2.54864746 -2.38842773 2.0847168 C-1.02190496 1.06253427 -1.02190496 1.06253427 0 0 Z " fill="#0E528B" transform="translate(358,437)"/>
<path d="M0 0 C0.91765137 -0.00315216 1.83530273 -0.00630432 2.78076172 -0.009552 C4.27760498 -0.00651566 4.27760498 -0.00651566 5.8046875 -0.00341797 C6.82191895 -0.00437469 7.83915039 -0.00533142 8.88720703 -0.00631714 C11.04264386 -0.00699908 13.19808272 -0.00514382 15.35351562 -0.00097656 C18.66541121 0.00437148 21.97717117 -0.0009211 25.2890625 -0.00732422 C27.37760447 -0.00666344 29.46614635 -0.00538228 31.5546875 -0.00341797 C32.55258301 -0.0054422 33.55047852 -0.00746643 34.57861328 -0.009552 C35.49626465 -0.00639984 36.41391602 -0.00324768 37.359375 0 C38.17132324 0.00079559 38.98327148 0.00159119 39.81982422 0.00241089 C41.6796875 0.12939453 41.6796875 0.12939453 42.6796875 1.12939453 C42.75299081 3.99408778 42.77186581 6.82833127 42.7421875 9.69189453 C42.7215625 12.47626953 42.7009375 15.26064453 42.6796875 18.12939453 C33.7696875 18.12939453 24.8596875 18.12939453 15.6796875 18.12939453 C15.6796875 21.75939453 15.6796875 25.38939453 15.6796875 29.12939453 C17.32839844 29.11779297 18.97710937 29.10619141 20.67578125 29.09423828 C22.82291554 29.08486215 24.97005105 29.07576176 27.1171875 29.06689453 C28.20580078 29.05851563 29.29441406 29.05013672 30.41601562 29.04150391 C31.45048828 29.03828125 32.48496094 29.03505859 33.55078125 29.03173828 C34.50911865 29.02650146 35.46745605 29.02126465 36.45483398 29.01586914 C38.6796875 29.12939453 38.6796875 29.12939453 39.6796875 30.12939453 C39.75294186 32.82808503 39.77191101 35.4944201 39.7421875 38.19189453 C39.7215625 40.81126953 39.7009375 43.43064453 39.6796875 46.12939453 C31.7596875 46.12939453 23.8396875 46.12939453 15.6796875 46.12939453 C15.6796875 50.74939453 15.6796875 55.36939453 15.6796875 60.12939453 C15.3496875 60.12939453 15.0196875 60.12939453 14.6796875 60.12939453 C14.6796875 55.17939453 14.6796875 50.22939453 14.6796875 45.12939453 C22.5996875 45.12939453 30.5196875 45.12939453 38.6796875 45.12939453 C38.6796875 40.50939453 38.6796875 35.88939453 38.6796875 31.12939453 C37.03097656 31.14099609 35.38226563 31.15259766 33.68359375 31.16455078 C31.53645946 31.17392691 29.38932395 31.1830273 27.2421875 31.19189453 C26.15357422 31.20027344 25.06496094 31.20865234 23.94335938 31.21728516 C22.90888672 31.22050781 21.87441406 31.22373047 20.80859375 31.22705078 C19.85025635 31.2322876 18.89191895 31.23752441 17.90454102 31.24291992 C15.6796875 31.12939453 15.6796875 31.12939453 14.6796875 30.12939453 C14.6796875 25.83939453 14.6796875 21.54939453 14.6796875 17.12939453 C23.2596875 16.79939453 31.8396875 16.46939453 40.6796875 16.12939453 C41.0096875 11.50939453 41.3396875 6.88939453 41.6796875 2.12939453 C26.8296875 2.12939453 11.9796875 2.12939453 -3.3203125 2.12939453 C-3.3203125 26.21939453 -3.3203125 50.30939453 -3.3203125 75.12939453 C-3.9803125 75.12939453 -4.6403125 75.12939453 -5.3203125 75.12939453 C-5.34343715 65.49826742 -5.36122821 55.86714979 -5.37212467 46.23600101 C-5.37735324 41.76433904 -5.38445039 37.292696 -5.39575195 32.82104492 C-5.40658179 28.5092748 -5.41258954 24.19752294 -5.41518974 19.88574028 C-5.41704382 18.23703155 -5.4206641 16.58832388 -5.42604256 14.93962288 C-5.43325428 12.63835581 -5.43430339 10.33716514 -5.43383789 8.03588867 C-5.4360585 6.72350723 -5.43827911 5.41112579 -5.44056702 4.05897522 C-5.25498387 -0.46210915 -4.10382621 0.00402116 0 0 Z " fill="#093D59" transform="translate(294.3203125,546.87060546875)"/>
<path d="M0 0 C19.87961569 -0.07004625 39.75920637 -0.12296666 59.63891983 -0.15543652 C68.8691851 -0.1709128 78.09937375 -0.19201685 87.32958984 -0.22631836 C95.37359504 -0.25619743 103.41754474 -0.27556946 111.46160388 -0.28226548 C115.72184031 -0.28618028 119.98191798 -0.29539634 124.24210358 -0.31719017 C128.25084441 -0.3375318 132.25936088 -0.34383855 136.26814842 -0.33932304 C137.74035803 -0.34014929 139.21257504 -0.34612889 140.68474007 -0.35761642 C142.69327509 -0.37252234 144.70193014 -0.36717054 146.71051025 -0.36076355 C147.83509769 -0.36352893 148.95968513 -0.36629431 150.11835098 -0.36914349 C153 0 153 0 157 3 C81.76 2.505 81.76 2.505 5 2 C5.66 3.32 6.32 4.64 7 6 C5.02 5.34 3.04 4.68 1 4 C1.17015625 4.52464844 1.3403125 5.04929688 1.515625 5.58984375 C3.30203406 11.30065145 4.828236 17.06450115 6.25 22.875 C6.43723633 23.61226318 6.62447266 24.34952637 6.81738281 25.10913086 C7.70115795 28.80011718 8.1123239 31.37743161 7 35 C6.67 32.69 6.34 30.38 6 28 C5.34 28 4.68 28 4 28 C3.79503906 26.79601562 3.59007812 25.59203125 3.37890625 24.3515625 C3.10693641 22.77601308 2.83479193 21.20049379 2.5625 19.625 C2.42779297 18.8309375 2.29308594 18.036875 2.15429688 17.21875 C1.48582411 12.98605017 1.48582411 12.98605017 0 9 C-0.06950541 7.45976004 -0.08452357 5.91665012 -0.0625 4.375 C-0.05347656 3.55773437 -0.04445313 2.74046875 -0.03515625 1.8984375 C-0.02355469 1.27195313 -0.01195312 0.64546875 0 0 Z " fill="#0B9BB9" transform="translate(305,139)"/>
<path d="M0 0 C0.33 0 0.66 0 1 0 C1.33 4.29 1.66 8.58 2 13 C9.59 13.33 17.18 13.66 25 14 C25 18.62 25 23.24 25 28 C17.08 28 9.16 28 1 28 C1.33 32.95 1.66 37.9 2 43 C15.365 43.495 15.365 43.495 29 44 C29 48.95 29 53.9 29 59 C13.82 59 -1.36 59 -17 59 C-17 58.67 -17 58.34 -17 58 C-2.48 58 12.04 58 27 58 C27 53.71 27 49.42 27 45 C24.09380859 45.01740234 24.09380859 45.01740234 21.12890625 45.03515625 C18.60677179 45.04453221 16.0846363 45.05363262 13.5625 45.0625 C12.28310547 45.07087891 11.00371094 45.07925781 9.68554688 45.08789062 C8.47060547 45.09111328 7.25566406 45.09433594 6.00390625 45.09765625 C4.87799072 45.10289307 3.7520752 45.10812988 2.59204102 45.11352539 C0 45 0 45 -1 44 C-1.09981214 41.3226862 -1.13879875 38.67695825 -1.125 36 C-1.12886719 35.24976563 -1.13273437 34.49953125 -1.13671875 33.7265625 C-1.12661053 28.12661053 -1.12661053 28.12661053 0 27 C1.70772358 26.91286169 3.41898649 26.89299993 5.12890625 26.90234375 C6.68061523 26.90717773 6.68061523 26.90717773 8.26367188 26.91210938 C9.35228516 26.92048828 10.44089844 26.92886719 11.5625 26.9375 C13.2012207 26.94426758 13.2012207 26.94426758 14.87304688 26.95117188 C17.58205432 26.9630016 20.2910338 26.98093769 23 27 C23 23.04 23 19.08 23 15 C15.41 15 7.82 15 0 15 C0 10.05 0 5.1 0 0 Z " fill="#097F9C" transform="translate(308,564)"/>
<path d="M0 0 C5.94 0 11.88 0 18 0 C18 24.75 18 49.5 18 75 C11.73 75 5.46 75 -1 75 C-4.08669204 71.91330796 -4.44855089 71.08072342 -5 67 C-2 69 -2 69 0 73 C5.61 73.33 11.22 73.66 17 74 C17 49.91 17 25.82 17 1 C11.72 1 6.44 1 1 1 C1 15.52 1 30.04 1 45 C-0.65 44.67 -2.3 44.34 -4 44 C-4.33 42.35 -4.66 40.7 -5 39 C-4.01 39.66 -3.02 40.32 -2 41 C-1.97494385 39.79351807 -1.9498877 38.58703613 -1.92407227 37.34399414 C-1.83017477 32.88424339 -1.72991167 28.42465487 -1.62768555 23.96508789 C-1.58426959 22.03185815 -1.54259958 20.09858841 -1.50268555 18.1652832 C-1.44514369 15.39261798 -1.3814038 12.62015543 -1.31640625 9.84765625 C-1.29969376 8.97786636 -1.28298126 8.10807648 -1.26576233 7.21192932 C-1.11387171 1.11387171 -1.11387171 1.11387171 0 0 Z " fill="#096F8D" transform="translate(686,548)"/>
<path d="M0 0 C42.33333333 0 42.33333333 0 49 4 C49.495 5.485 49.495 5.485 50 7 C48.948125 6.566875 48.948125 6.566875 47.875 6.125 C46.92625 5.75375 45.9775 5.3825 45 5 C44.1342334 4.65533691 43.2684668 4.31067383 42.37646484 3.95556641 C38.21426762 2.77763149 34.4056395 2.64784455 30.1015625 2.5859375 C29.36059326 2.56829346 28.61962402 2.55064941 27.85620117 2.5324707 C25.11268011 2.46984349 22.36880973 2.42335412 19.625 2.375 C10.405625 2.189375 10.405625 2.189375 1 2 C1.33 25.43 1.66 48.86 2 73 C15.2 73 28.4 73 42 73 C38.06732146 75.62178569 34.73422339 75.25172941 30.17578125 75.1953125 C29.41213257 75.19329834 28.64848389 75.19128418 27.86169434 75.18920898 C25.0119017 75.1787531 22.16219475 75.15083047 19.3125 75.125 C12.939375 75.08375 6.56625 75.0425 0 75 C0 50.25 0 25.5 0 0 Z " fill="#096785" transform="translate(204,548)"/>
<path d="M0 0 C2.73339329 -0.05922133 5.46549289 -0.10252799 8.19921875 -0.13671875 C8.96971558 -0.15504761 9.7402124 -0.17337646 10.53405762 -0.19226074 C15.72325794 -0.24093992 19.36753528 0.24687777 23.5546875 3.5703125 C29.92277844 9.86955921 30.25353388 14.48118032 30.33007812 23.26782227 C30.24782251 28.88793749 29.03690928 32.34973267 26 37 C24.75453595 34.50907189 25.2232422 33.58919267 26 31 C26.66 31 27.32 31 28 31 C28.33430624 21.37940946 28.51474011 14.27211016 23 6 C19.94570927 4.78715124 19.94570927 4.78715124 17 4 C17 3.34 17 2.68 17 2 C12.05 2 7.1 2 2 2 C2 14.87 2 27.74 2 41 C6.95 41 11.9 41 17 41 C16.67 41.66 16.34 42.32 16 43 C13.52076199 43.02685095 11.0418116 43.04676547 8.5625 43.0625 C7.85544922 43.07087891 7.14839844 43.07925781 6.41992188 43.08789062 C4.61306441 43.09653588 2.80612397 43.05220011 1 43 C0 42 0 42 -0.11352539 38.03100586 C-0.1133662 36.25894393 -0.10766785 34.4868774 -0.09765625 32.71484375 C-0.0962413 31.78402481 -0.09482635 30.85320587 -0.09336853 29.8941803 C-0.08775172 26.90858809 -0.0751964 23.92306971 -0.0625 20.9375 C-0.05748716 18.91862087 -0.05292388 16.89974057 -0.04882812 14.88085938 C-0.03777683 9.92054428 -0.02050095 4.96028468 0 0 Z " fill="#094D69" transform="translate(222,564)"/>
<path d="M0 0 C0.33 0 0.66 0 1 0 C1 23.43 1 46.86 1 71 C6.28 71 11.56 71 17 71 C17 56.48 17 41.96 17 27 C17.99 27 18.98 27 20 27 C19.88269799 33.39052386 19.75786229 39.78086808 19.62768555 46.17114258 C19.58426493 48.34688953 19.54259529 50.52267214 19.50268555 52.69848633 C19.44515498 55.81863168 19.38141177 58.93859633 19.31640625 62.05859375 C19.29133751 63.52733192 19.29133751 63.52733192 19.26576233 65.02574158 C19.24581711 65.92659988 19.22587189 66.82745819 19.20532227 67.75561523 C19.18977798 68.55281479 19.1742337 69.35001434 19.15821838 70.17137146 C19 72 19 72 18 73 C12.06 73 6.12 73 0 73 C0 48.91 0 24.82 0 0 Z " fill="#097C99" transform="translate(638,550)"/>
<path d="M0 0 C19.40213212 -0.02338598 38.80426138 -0.04100716 58.20640469 -0.05181217 C67.21565154 -0.05696302 76.22488963 -0.06398263 85.23413086 -0.07543945 C93.08884072 -0.08542331 100.94354424 -0.09186224 108.79826027 -0.09408849 C112.95519521 -0.09538932 117.11211197 -0.09843532 121.26904106 -0.10573006 C125.18663888 -0.11254871 129.10421115 -0.11460512 133.02181435 -0.11310768 C134.45482396 -0.11338139 135.88783447 -0.11535168 137.32083893 -0.11920547 C144.61883213 -0.13785908 151.77536704 -0.10295322 159 1 C159.33 1.33 159.66 1.66 160 2 C162.7692064 2.53670287 165.54945085 2.9648874 168.3359375 3.40234375 C171 4 171 4 174 6 C171.1867229 5.71472703 168.3745507 5.42193837 165.5625 5.125 C164.77939453 5.04636719 163.99628906 4.96773437 163.18945312 4.88671875 C162.40634766 4.80292969 161.62324219 4.71914062 160.81640625 4.6328125 C159.75595093 4.52283936 159.75595093 4.52283936 158.67407227 4.41064453 C156 4 156 4 152.2401123 2.9942627 C145.70896776 1.54109912 139.14279077 1.69100529 132.48413086 1.68115234 C131.0345403 1.67183896 129.58495504 1.66166822 128.13537598 1.65071106 C124.22488779 1.62355581 120.31443533 1.60830492 116.40387797 1.59528303 C112.30791197 1.57958871 108.21201826 1.55281878 104.11610413 1.5272522 C96.37095913 1.48057549 88.62580038 1.44377783 80.88058716 1.41057932 C72.05825239 1.37227917 63.23599042 1.32288983 54.41371715 1.27259517 C36.27586481 1.16944065 18.13796796 1.08012695 0 1 C0 0.67 0 0.34 0 0 Z " fill="#09314D" transform="translate(304,137)"/>
<path d="M0 0 C0.78552246 0.01047363 1.57104492 0.02094727 2.38037109 0.03173828 C3.23115234 0.03818359 4.08193359 0.04462891 4.95849609 0.05126953 C6.29267578 0.07640625 6.29267578 0.07640625 7.65380859 0.10205078 C8.99958984 0.11558594 8.99958984 0.11558594 10.37255859 0.12939453 C12.59157445 0.15300108 14.81005937 0.18592768 17.02880859 0.22705078 C17.35880859 1.54705078 17.68880859 2.86705078 18.02880859 4.22705078 C17.36880859 3.89705078 16.70880859 3.56705078 16.02880859 3.22705078 C10.41880859 3.22705078 4.80880859 3.22705078 -0.97119141 3.22705078 C-1.30119141 26.98705078 -1.63119141 50.74705078 -1.97119141 75.22705078 C-2.63119141 75.22705078 -3.29119141 75.22705078 -3.97119141 75.22705078 C-4.01746959 65.74359063 -4.05303753 56.26016917 -4.07481575 46.77662086 C-4.08526658 42.37333827 -4.09944937 37.97013276 -4.12207031 33.56689453 C-4.14375253 29.31995254 -4.15575024 25.07308482 -4.16094589 20.82609177 C-4.16464999 19.20332036 -4.17188286 17.58055316 -4.18265152 15.95781326 C-4.19710521 13.69020962 -4.19917195 11.42291551 -4.19824219 9.15527344 C-4.20268341 7.8628775 -4.20712463 6.57048157 -4.21170044 5.23892212 C-3.94350192 1.88029797 -3.54512534 0.40834364 0 0 Z " fill="#09314D" transform="translate(639.97119140625,546.77294921875)"/>
<path d="M0 0 C20.04455452 -0.04666886 40.08909806 -0.0819637 60.1336956 -0.10362434 C69.44022307 -0.11394795 78.74671682 -0.12802892 88.05322266 -0.15087891 C96.16239796 -0.17077967 104.27154887 -0.18370854 112.38074791 -0.18817699 C116.67665192 -0.19079001 120.97248609 -0.19695408 125.26836777 -0.21146011 C129.30825875 -0.22499176 133.34805085 -0.22923165 137.38796234 -0.22621536 C138.87390555 -0.22676751 140.35985193 -0.23077121 141.8457756 -0.23841095 C143.86817814 -0.24830261 145.89063323 -0.24479103 147.91305542 -0.24050903 C149.61376348 -0.24327441 149.61376348 -0.24327441 151.34882927 -0.24609566 C154 0 154 0 156 2 C80.76 1.505 80.76 1.505 4 1 C4.66 2.32 5.32 3.64 6 5 C4.02 4.34 2.04 3.68 0 3 C0 2.01 0 1.02 0 0 Z " fill="#0CB6D5" transform="translate(306,140)"/>
<path d="M0 0 C0.66 0.33 1.32 0.66 2 1 C-5.16986115 8.64785189 -13.85262303 14.6580402 -22.234375 20.890625 C-25.07007922 23.05345026 -27.76828686 25.30867762 -30.40234375 27.7109375 C-32 29 -32 29 -34.3046875 30.37109375 C-38.02085624 32.61695225 -41.38176957 35.27916128 -44.80273438 37.94726562 C-48.78783097 41 -48.78783097 41 -51 41 C-51 41.66 -51 42.32 -51 43 C-51.66 43 -52.32 43 -53 43 C-51.59699451 38.79098352 -48.53387374 37.18582789 -45.0625 34.6875 C-43.59262228 33.60830512 -42.12391532 32.52751424 -40.65625 31.4453125 C-39.88925781 30.88102539 -39.12226563 30.31673828 -38.33203125 29.73535156 C-34.52831787 26.90486635 -30.79594878 23.98468397 -27.0625 21.0625 C-20.14926098 15.66091974 -13.19946433 10.31015324 -6.21704102 4.99829102 C-5.54600342 4.48709717 -4.87496582 3.97590332 -4.18359375 3.44921875 C-3.59118896 2.99893311 -2.99878418 2.54864746 -2.38842773 2.0847168 C-1.02190496 1.06253427 -1.02190496 1.06253427 0 0 Z " fill="#124788" transform="translate(358,437)"/>
<path d="M0 0 C0 4.02197773 -1.2932859 5.07959795 -4 8 C-8.91390662 11.65929216 -12.82024272 14 -19 14 C-19 14.66 -19 15.32 -19 16 C-26.50001236 17.62162429 -34.49998764 17.62162429 -42 16 C-42 15.34 -42 14.68 -42 14 C-42.825 13.95875 -43.65 13.9175 -44.5 13.875 C-49.24024587 12.68993853 -52.28768695 10.08103139 -56 7 C-55.34 6.67 -54.68 6.34 -54 6 C-51.96855359 6.93446535 -49.96466413 7.93224776 -48 9 C-48 9.66 -48 10.32 -48 11 C-47.401875 11.144375 -46.80375 11.28875 -46.1875 11.4375 C-44.43849596 11.8872439 -42.71322977 12.42892341 -41 13 C-30.66031495 13.86752363 -19.08596352 14.64901957 -10 9 C-8.99259766 8.38705078 -8.99259766 8.38705078 -7.96484375 7.76171875 C-4.69028522 5.58988629 -2.09816568 3.33238078 0 0 Z " fill="#097C99" transform="translate(610,607)"/>
<path d="M0 0 C0.66 0.33 1.32 0.66 2 1 C-6.20054988 10.12344134 -24.29536617 13.61775747 -36.125 14.8125 C-37.40375 14.874375 -38.6825 14.93625 -40 15 C-37.79220462 12.79220462 -36.69945704 12.45514519 -33.75 11.625 C-32.41001953 11.23828125 -32.41001953 11.23828125 -31.04296875 10.84375 C-28.90253187 10.25025274 -26.75898415 9.66791733 -24.61328125 9.09375 C-17.83462862 7.24434862 -11.53606963 5.1156679 -5.20703125 2.05078125 C-3 1 -3 1 0 0 Z " fill="#0C3863" transform="translate(507,464)"/>
<path d="M0 0 C7.95508538 -0.07010356 15.91003759 -0.12311281 23.8653574 -0.15543652 C27.56098554 -0.17096526 31.25639942 -0.19196316 34.9519043 -0.22631836 C38.53108198 -0.25937658 42.11005612 -0.2769486 45.68937492 -0.28463173 C47.69138692 -0.29271628 49.69331922 -0.31605727 51.69520569 -0.33988953 C63.02200753 -0.34192621 74.62556961 0.09243407 84 7 C81 8 81 8 78.8125 7.0625 C78.214375 6.711875 77.61625 6.36125 77 6 C77 5.34 77 4.68 77 4 C76.02417969 3.93941406 75.04835938 3.87882813 74.04296875 3.81640625 C72.77066406 3.73261719 71.49835938 3.64882812 70.1875 3.5625 C68.92292969 3.48128906 67.65835938 3.40007812 66.35546875 3.31640625 C63 3 63 3 60 2 C58.05283354 1.88324185 56.10206523 1.82330075 54.15161133 1.79467773 C52.9505928 1.77473251 51.74957428 1.75478729 50.51216125 1.73423767 C49.21521835 1.71752518 47.91827545 1.70081268 46.58203125 1.68359375 C45.2410977 1.66301707 43.90017054 1.64202041 42.55924988 1.62062073 C39.03298111 1.56547373 35.50665452 1.51603206 31.98028564 1.46777344 C28.38068507 1.4175045 24.78116827 1.36184661 21.18164062 1.30664062 C14.12116648 1.19914929 7.06061718 1.09768435 0 1 C0 0.67 0 0.34 0 0 Z " fill="#092B47" transform="translate(377,194)"/>
<path d="M0 0 C0.625 1.8125 0.625 1.8125 1 4 C0.34 4.99 -0.32 5.98 -1 7 C-1.66 7 -2.32 7 -3 7 C-3.226875 7.556875 -3.45375 8.11375 -3.6875 8.6875 C-5.37377267 11.65855185 -7.530354 13.64522125 -10 16 C-10.886875 16.928125 -11.77375 17.85625 -12.6875 18.8125 C-15 21 -15 21 -17 21 C-17.33 21.99 -17.66 22.98 -18 24 C-18.66 24 -19.32 24 -20 24 C-20.33 24.99 -20.66 25.98 -21 27 C-23.125 29.3125 -23.125 29.3125 -26 32 C-26.57621094 32.55816406 -27.15242187 33.11632812 -27.74609375 33.69140625 C-28.64521484 34.52478516 -28.64521484 34.52478516 -29.5625 35.375 C-30.12066406 35.89835937 -30.67882812 36.42171875 -31.25390625 36.9609375 C-33 38 -33 38 -35.21484375 37.6640625 C-36.09849609 37.33535156 -36.09849609 37.33535156 -37 37 C-31.25 32 -31.25 32 -29 32 C-29 31.34 -29 30.68 -29 30 C-27.27553083 28.77297386 -25.54819483 27.54959306 -23.80078125 26.35546875 C-21.41431133 24.55914541 -19.82409917 22.35367634 -18 20 C-16.51055189 18.79576536 -15.02072837 17.59189995 -13.51953125 16.40234375 C-11.79526172 14.8110513 -10.57065061 13.12367508 -9.25 11.1875 C-8.5075 10.135625 -7.765 9.08375 -7 8 C-6.34 8 -5.68 8 -5 8 C-4.731875 7.4225 -4.46375 6.845 -4.1875 6.25 C-2.98280141 3.9674132 -1.59201885 2.0262058 0 0 Z " fill="#0B4F80" transform="translate(570,412)"/>
<path d="M0 0 C4.17694635 3.34155708 5.39070312 6.84730417 6 12 C6.15675537 14.69784246 6.26914559 17.36337854 6.3125 20.0625 C6.33022461 20.73506836 6.34794922 21.40763672 6.36621094 22.10058594 C6.35877707 27.16800599 5.1948923 30.54651141 3 35 C1.98694662 31.96083986 1.91046504 30.02247774 1.97265625 26.8515625 C1.98490234 25.84609375 1.99714844 24.840625 2.00976562 23.8046875 C2.04479348 21.69263756 2.08382645 19.58065009 2.12695312 17.46875 C2.13791016 16.46070313 2.14886719 15.45265625 2.16015625 14.4140625 C2.17699463 13.4957666 2.19383301 12.5774707 2.21118164 11.63134766 C1.97932888 8.7424354 1.094399 6.66596137 0 4 C0 2.68 0 1.36 0 0 Z " fill="#097C99" transform="translate(265,566)"/>
<path d="M0 0 C0.33 0 0.66 0 1 0 C1.33 3.63 1.66 7.26 2 11 C2.66 11 3.32 11 4 11 C4.33 13.31 4.66 15.62 5 18 C18.02609954 17.31530883 18.02609954 17.31530883 31 16 C29 19 29 19 26.67895508 19.68139648 C24.13160347 19.98434863 21.70068667 20.11419798 19.13671875 20.09765625 C17.80737305 20.09282227 17.80737305 20.09282227 16.45117188 20.08789062 C15.53916016 20.07951172 14.62714844 20.07113281 13.6875 20.0625 C12.75615234 20.05798828 11.82480469 20.05347656 10.86523438 20.04882812 C8.57675627 20.03709234 6.28841192 20.02067363 4 20 C3.51801537 18.75108386 3.03954323 17.50081192 2.5625 16.25 C2.29566406 15.55390625 2.02882813 14.8578125 1.75390625 14.140625 C0.03037554 9.24686941 -0.08603094 5.16185632 0 0 Z " fill="#0E3768" transform="translate(415,352)"/>
<path d="M0 0 C5.5318164 -0.024875 11.06359962 -0.04294235 16.59545898 -0.05493164 C18.47404549 -0.05993432 20.35262815 -0.06673856 22.23120117 -0.07543945 C24.94450839 -0.08768427 27.65776376 -0.09326911 30.37109375 -0.09765625 C31.61384315 -0.10539818 31.61384315 -0.10539818 32.88169861 -0.11329651 C38.32927646 -0.11381074 43.60163048 0.24163939 49 1 C49.495 1.495 49.495 1.495 50 2 C52.7692064 2.53670287 55.54945085 2.9648874 58.3359375 3.40234375 C61 4 61 4 64 6 C61.1867229 5.71472703 58.3745507 5.42193837 55.5625 5.125 C54.3878418 5.00705078 54.3878418 5.00705078 53.18945312 4.88671875 C52.40634766 4.80292969 51.62324219 4.71914062 50.81640625 4.6328125 C49.75595093 4.52283936 49.75595093 4.52283936 48.67407227 4.41064453 C46.31612785 4.04854625 44.07630871 3.54508045 41.75976562 2.98632812 C37.15190269 1.94251756 32.73963389 1.65728918 28.02734375 1.5859375 C27.21882462 1.56657135 26.41030548 1.5472052 25.57728577 1.5272522 C23.03079303 1.4681501 20.48425336 1.42135289 17.9375 1.375 C16.19594537 1.33675613 14.45440836 1.29770083 12.71289062 1.2578125 C8.47540594 1.16250713 4.237833 1.07822518 0 1 C0 0.67 0 0.34 0 0 Z " fill="#0A3B56" transform="translate(414,137)"/>
<path d="M0 0 C3.86114956 1.46457397 5.07990881 3.42164824 7 7 C7.99 8.485 7.99 8.485 9 10 C9.25878906 11.92944336 9.25878906 11.92944336 9.265625 14.08984375 C9.26820313 14.87423828 9.27078125 15.65863281 9.2734375 16.46679688 C9.26570312 17.28212891 9.25796875 18.09746094 9.25 18.9375 C9.25773438 19.74896484 9.26546875 20.56042969 9.2734375 21.39648438 C9.27085937 22.18216797 9.26828125 22.96785156 9.265625 23.77734375 C9.26336914 24.49140381 9.26111328 25.20546387 9.25878906 25.94116211 C8.95641384 28.3467567 8.26726896 29.94027216 7 32 C4.875 33.25 4.875 33.25 3 34 C3.30798326 32.51988629 3.621518 31.04092675 3.9375 29.5625 C4.11152344 28.73878906 4.28554688 27.91507813 4.46484375 27.06640625 C5 25 5 25 6 24 C6.70353259 15.5440794 6.14395551 8.65771187 1.3125 1.5 C0.879375 1.005 0.44625 0.51 0 0 Z " fill="#095C79" transform="translate(591,567)"/>
<path d="M0 0 C0.66 0.33 1.32 0.66 2 1 C0.35 1.66 -1.3 2.32 -3 3 C-3 3.66 -3 4.32 -3 5 C-9.01009789 6.55819193 -14.55403381 7.28167989 -20.75390625 7.1953125 C-21.93339088 7.19106766 -21.93339088 7.19106766 -23.13670349 7.18673706 C-25.61213359 7.17567289 -28.08718199 7.15059591 -30.5625 7.125 C-32.2558541 7.11495234 -33.94921395 7.10582965 -35.64257812 7.09765625 C-39.76186253 7.07577898 -43.88086689 7.04134718 -48 7 C-48 6.67 -48 6.34 -48 6 C-47.10394043 5.9906543 -46.20788086 5.98130859 -45.28466797 5.97167969 C-41.88827517 5.92707661 -38.49303266 5.86521151 -35.09716797 5.79248047 C-33.64090014 5.76464147 -32.1844916 5.74324725 -30.72802734 5.72900391 C-20.09563789 5.61893776 -9.71684827 4.85842414 0 0 Z " fill="#0A98B6" transform="translate(254,615)"/>
<path d="M0 0 C0.515625 0.268125 1.03125 0.53625 1.5625 0.8125 C4.66401415 2.32349407 7.82262806 3.65572726 11 5 C11 5.66 11 6.32 11 7 C23.375 6.505 23.375 6.505 36 6 C32.45406594 9.54593406 27.06039276 9.07260208 22.25 9.1875 C16.70399428 9.14483842 11.41066213 8.15208015 6 7 C6 6.34 6 5.68 6 5 C5.38125 4.731875 4.7625 4.46375 4.125 4.1875 C2 3 2 3 0 0 Z " fill="#096480" transform="translate(362,615)"/>
<path d="M0 0 C0.66 0.33 1.32 0.66 2 1 C1.38125 1.0825 0.7625 1.165 0.125 1.25 C-2.14390805 1.78597843 -2.14390805 1.78597843 -3 3.8125 C-3.33 4.534375 -3.66 5.25625 -4 6 C-6 8.25 -6 8.25 -8 10 C-8.66 10 -9.32 10 -10 10 C-12.13171419 17.28193568 -11.51579573 24.92432451 -9 32 C-13.14481479 28.21560389 -13.34833969 24.40298495 -13.6875 18.9375 C-13.81342154 14.5456543 -13.38556409 11.57621986 -10.875 7.82421875 C-7.47940626 4.41381864 -4.60929003 1.53643001 0 0 Z " fill="#098FAD" transform="translate(369,550)"/>
<path d="M0 0 C2.46549665 2.94153373 3.56889327 5.33190681 4.421875 9.0625 C4.64230469 10.02414063 4.86273438 10.98578125 5.08984375 11.9765625 C5.41662109 13.47316406 5.41662109 13.47316406 5.75 15 C5.98332031 15.99773437 6.21664063 16.99546875 6.45703125 18.0234375 C8.27399735 26.13994476 8.27399735 26.13994476 7 30 C6.67 27.69 6.34 25.38 6 23 C5.34 23 4.68 23 4 23 C3.52047335 20.29172996 3.04136769 17.58338656 2.5625 14.875 C2.42779297 14.11445313 2.29308594 13.35390625 2.15429688 12.5703125 C1.41440873 8.38362839 0.69026923 4.19522853 0 0 Z " fill="#0D82B8" transform="translate(305,144)"/>
<path d="M0 0 C0.99 0.66 1.98 1.32 3 2 C3.4375 5.4375 3.4375 5.4375 3 9 C0.74631577 11.31174167 -0.56840636 11.95479117 -3.796875 12.29296875 C-4.77140625 12.25816406 -5.7459375 12.22335937 -6.75 12.1875 C-7.73484375 12.16042969 -8.7196875 12.13335938 -9.734375 12.10546875 C-10.48203125 12.07066406 -11.2296875 12.03585937 -12 12 C-12.66 10.35 -13.32 8.7 -14 7 C-13.01 7.33 -12.02 7.66 -11 8 C-11 8.66 -11 9.32 -11 10 C-7.7 9.67 -4.4 9.34 -1 9 C-0.67 6.03 -0.34 3.06 0 0 Z " fill="#096380" transform="translate(390,597)"/>
<path d="M0 0 C0.75982178 0.00580078 1.51964355 0.01160156 2.30249023 0.01757812 C7.68295105 0.14247652 11.90825069 0.90261737 16.75 3.375 C14.20677792 4.64661104 12.61918821 4.07738476 9.89404297 3.63720703 C5.7176637 3.1264542 1.51338047 3.2731829 -2.6875 3.3125 C-3.60982422 3.31701172 -4.53214844 3.32152344 -5.48242188 3.32617188 C-7.73835048 3.33786062 -9.99413967 3.35424545 -12.25 3.375 C-8.61493794 -0.24093015 -4.84259128 -0.08798046 0 0 Z " fill="#095A77" transform="translate(580.25,546.625)"/>
<path d="M0 0 C0.33 0 0.66 0 1 0 C1.03758423 1.0058313 1.03758423 1.0058313 1.07592773 2.03198242 C1.19230801 5.0839959 1.31484348 8.13573258 1.4375 11.1875 C1.47681641 12.24259766 1.51613281 13.29769531 1.55664062 14.38476562 C1.59853516 15.40634766 1.64042969 16.42792969 1.68359375 17.48046875 C1.72025146 18.41785889 1.75690918 19.35524902 1.79467773 20.32104492 C1.99625599 22.95114982 2.42678321 25.42766414 3 28 C0 26 0 26 -0.6796875 22.92578125 C-1.02756924 18.66210872 -1.14724718 14.4626668 -1.125 10.1875 C-1.12886719 9.42501953 -1.13273438 8.66253906 -1.13671875 7.87695312 C-1.12677462 2.25354925 -1.12677462 2.25354925 0 0 Z " fill="#096986" transform="translate(543,573)"/>
<path d="M0 0 C0.66 0.33 1.32 0.66 2 1 C0.75 2.5 0.75 2.5 -1 4 C-2.32 4 -3.64 4 -5 4 C-5 4.66 -5 5.32 -5 6 C-6.89551022 6.05441656 -8.7914792 6.09298035 -10.6875 6.125 C-11.74324219 6.14820313 -12.79898438 6.17140625 -13.88671875 6.1953125 C-17.02251859 5.99858729 -19.17645373 5.33057654 -22 4 C-22 3.67 -22 3.34 -22 3 C-20.49759766 3.05220703 -20.49759766 3.05220703 -18.96484375 3.10546875 C-11.99802715 3.2725324 -6.28400378 3.36121132 0 0 Z " fill="#094F6B" transform="translate(592,601)"/>
<path d="M0 0 C6.27 0 12.54 0 19 0 C19.33 1.32 19.66 2.64 20 4 C19.34 3.67 18.68 3.34 18 3 C16.62451844 2.91691362 15.24514204 2.89263984 13.8671875 2.90234375 C13.06152344 2.90556641 12.25585938 2.90878906 11.42578125 2.91210938 C10.16314453 2.92467773 10.16314453 2.92467773 8.875 2.9375 C7.60076172 2.94426758 7.60076172 2.94426758 6.30078125 2.95117188 C4.20049091 2.96297126 2.1002367 2.98090694 0 3 C0 2.01 0 1.02 0 0 Z " fill="#093C58" transform="translate(638,547)"/>
<path d="M0 0 C3.32176381 3.32176381 3.63863622 7.89267616 4.6875 12.375 C4.92533203 13.3340625 5.16316406 14.293125 5.40820312 15.28125 C5.62798828 16.20679688 5.84777344 17.13234375 6.07421875 18.0859375 C6.27619873 18.9320459 6.47817871 19.7781543 6.6862793 20.64990234 C7.01277785 23.09571951 6.76616786 24.67500748 6 27 C2.82761544 18.17584295 0 9.45368669 0 0 Z " fill="#0D82B9" transform="translate(316,187)"/>
<path d="M0 0 C2.28057705 1.93849049 3.56085162 3.95067698 4.9375 6.5625 C6.40506665 9.39053256 6.40506665 9.39053256 9.125 10.9375 C11 12 11 12 11.6953125 13.88671875 C12.19651856 15.90919109 12.60406065 17.95431334 13 20 C12.01 19.34 11.02 18.68 10 18 C9.814375 17.071875 9.814375 17.071875 9.625 16.125 C8.71388851 13.02722092 6.47414871 11.96663103 4 10 C4 9.01 4 8.02 4 7 C3.34 7 2.68 7 2 7 C0 4 0 4 0 0 Z " fill="#09617D" transform="translate(658,580)"/>
<path d="M0 0 C2.56715917 2.14077979 3.88098889 3.30359304 4.45410156 6.65722656 C4.4331543 7.64174805 4.41220703 8.62626953 4.390625 9.640625 C4.37773437 10.71054687 4.36484375 11.78046875 4.3515625 12.8828125 C4.31804687 13.99398437 4.28453125 15.10515625 4.25 16.25 C4.23195313 17.37664063 4.21390625 18.50328125 4.1953125 19.6640625 C4.14820222 22.44356896 4.08243361 25.2213534 4 28 C3.67 28 3.34 28 3 28 C2.92652344 26.02966797 2.92652344 26.02966797 2.8515625 24.01953125 C2.77650532 22.28383405 2.70095877 20.54815797 2.625 18.8125 C2.5940625 17.94818359 2.563125 17.08386719 2.53125 16.19335938 C2.32296715 11.6632074 1.88000982 8.18034705 0 4 C0 2.68 0 1.36 0 0 Z " fill="#099AB8" transform="translate(265,566)"/>
<path d="M0 0 C-2.70507796 3.34156689 -6.01486922 4.58156362 -10 6 C-13.4375 6.1875 -13.4375 6.1875 -16 6 C-14.42840514 2.85681028 -11.77138608 2.53911691 -8.5625 1.3125 C-7.38816406 0.85488281 -6.21382813 0.39726562 -5.00390625 -0.07421875 C-2 -1 -2 -1 0 0 Z " fill="#0C406F" transform="translate(509,465)"/>
<path d="M0 0 C2.9719385 1.12451727 5.33440687 2.22293791 8 4 C8 4.66 8 5.32 8 6 C9.670625 5.9690625 9.670625 5.9690625 11.375 5.9375 C15 6 15 6 17 7 C17 7.66 17 8.32 17 9 C10.2894725 8.43131123 6.25456605 7.62017135 1.6875 2.3125 C1.130625 1.549375 0.57375 0.78625 0 0 Z " fill="#0987A5" transform="translate(360,582)"/>
<path d="M0 0 C0.66 0.33 1.32 0.66 2 1 C0.35 1.66 -1.3 2.32 -3 3 C-3 3.66 -3 4.32 -3 5 C-6.01490557 6.00496852 -8.04181692 6.10335303 -11.1875 6.0625 C-12.53908203 6.04896484 -12.53908203 6.04896484 -13.91796875 6.03515625 C-14.60503906 6.02355469 -15.29210937 6.01195312 -16 6 C-13.44690137 3.44690137 -11.49828188 3.24059115 -8 2.4375 C-3.88452085 1.53923227 -3.88452085 1.53923227 0 0 Z " fill="#098CA9" transform="translate(254,615)"/>
<path d="M0 0 C0.33 0 0.66 0 1 0 C0.67 5.28 0.34 10.56 0 16 C-0.66 16 -1.32 16 -2 16 C-2.05423638 14.08364783 -2.09289963 12.16685075 -2.125 10.25 C-2.14820313 9.18265625 -2.17140625 8.1153125 -2.1953125 7.015625 C-2.00487687 4.07529894 -1.52670104 2.47638122 0 0 Z " fill="#099FBE" transform="translate(561,575)"/>
<path d="M0 0 C1 2 1 2 0.0625 5.125 C-0.288125 6.07375 -0.63875 7.0225 -1 8 C-1.66 8 -2.32 8 -3 8 C-3.144375 9.11375 -3.28875 10.2275 -3.4375 11.375 C-4 15 -4 15 -5 17 C-5.99 17 -6.98 17 -8 17 C-8 16.01 -8 15.02 -8 14 C-7.34 13.67 -6.68 13.34 -6 13 C-5.27306096 11.02111039 -4.60183749 9.02045442 -4 7 C-3.34 7 -2.68 7 -2 7 C-1.855625 6.030625 -1.71125 5.06125 -1.5625 4.0625 C-1 1 -1 1 0 0 Z " fill="#094F7A" transform="translate(587,383)"/>
<path d="M0 0 C6.6 0.33 13.2 0.66 20 1 C19.01 1.33 18.02 1.66 17 2 C17 2.66 17 3.32 17 4 C17.99 4.33 18.98 4.66 20 5 C13.33333333 3.66666667 6.66666667 2.33333333 0 1 C0 0.67 0 0.34 0 0 Z " fill="#0879A6" transform="translate(440,194)"/>
<path d="M0 0 C5.75 1.875 5.75 1.875 8 3 C8 3.66 8 4.32 8 5 C8.804375 5.185625 8.804375 5.185625 9.625 5.375 C12.4638286 6.12206016 15.22223202 7.05303364 18 8 C15.02336327 9.30972016 13.8318085 8.94287836 10.6875 7.875 C6.76065488 6.03907241 3.42033052 3.65250122 0 1 C0 0.67 0 0.34 0 0 Z " fill="#09819E" transform="translate(554,613)"/>
<path d="M0 0 C1.98 0.66 3.96 1.32 6 2 C6 2.66 6 3.32 6 4 C6.99 4.33 7.98 4.66 9 5 C10.1875 8.0625 10.1875 8.0625 11 11 C9.2925002 9.71937515 7.62626404 8.38232443 6 7 C6 6.34 6 5.68 6 5 C5.195625 4.731875 4.39125 4.46375 3.5625 4.1875 C2.716875 3.795625 1.87125 3.40375 1 3 C0.67 2.01 0.34 1.02 0 0 Z " fill="#09819F" transform="translate(254,555)"/>
<path d="M0 0 C1.89510699 -0.08160748 3.79124504 -0.13946459 5.6875 -0.1875 C6.74324219 -0.22230469 7.79898438 -0.25710938 8.88671875 -0.29296875 C12.40974086 0.0385578 14.21494596 0.8472285 17 3 C17.33 3.99 17.66 4.98 18 6 C17.29875 5.71125 16.5975 5.4225 15.875 5.125 C10.56914023 3.048794 5.67686193 1.68122343 0 1 C0 0.67 0 0.34 0 0 Z " fill="#09516E" transform="translate(236,549)"/>
<path d="M0 0 C0.66 0.33 1.32 0.66 2 1 C1.01 1.33 0.02 1.66 -1 2 C-1.433125 2.928125 -1.433125 2.928125 -1.875 3.875 C-3.39122621 6.73898285 -5.09497058 7.65376685 -8 9 C-8.99 8.67 -9.98 8.34 -11 8 C-6.25 4 -6.25 4 -4 4 C-4 3.34 -4 2.68 -4 2 C-2.125 0.9375 -2.125 0.9375 0 0 Z " fill="#0F3669" transform="translate(476,353)"/>
<path d="M0 0 C3.10742423 1.46818668 5.90471739 3.20025 8.75 5.125 C9.94882812 5.93324219 9.94882812 5.93324219 11.171875 6.7578125 C11.77515625 7.16773438 12.3784375 7.57765625 13 8 C11 9 11 9 7.625 7.9375 C3.60127126 6.13984248 2.10787754 3.79417957 0 0 Z " fill="#0A7895" transform="translate(524,162)"/>
<path d="M0 0 C1.77027736 3.54055472 0.1624922 7.36645108 -1 11 C-2.17763278 13.20750175 -3.46701181 15.00711535 -5 17 C-6 15 -6 15 -5.0390625 11.77734375 C-4.57549966 10.49455347 -4.1037858 9.21468659 -3.625 7.9375 C-3.39039063 7.28716797 -3.15578125 6.63683594 -2.9140625 5.96679688 C-1.14959206 1.14959206 -1.14959206 1.14959206 0 0 Z " fill="#085881" transform="translate(597,358)"/>
<path d="M0 0 C0.66 0.33 1.32 0.66 2 1 C-1.82180842 5.4008703 -4.47371099 6.80805531 -10 8 C-6.97727468 4.74475735 -3.74281699 2.38179263 0 0 Z " fill="#0C4675" transform="translate(531,450)"/>
<path d="M0 0 C0.66 0.33 1.32 0.66 2 1 C0.93106782 2.03590338 -0.15578488 3.05333942 -1.25 4.0625 C-2.15492188 4.91521484 -2.15492188 4.91521484 -3.078125 5.78515625 C-5 7 -5 7 -7.234375 6.68359375 C-7.81703125 6.45800781 -8.3996875 6.23242188 -9 6 C-3.375 1.125 -3.375 1.125 0 0 Z " fill="#0B3C66" transform="translate(542,443)"/>
<path d="M0 0 C-0.33 0.99 -0.66 1.98 -1 3 C-2.99609375 3.984375 -2.99609375 3.984375 -5.4375 4.75 C-6.24058594 5.01296875 -7.04367187 5.2759375 -7.87109375 5.546875 C-10 6 -10 6 -12 5 C-10.56705502 4.15885829 -9.12845595 3.32734313 -7.6875 2.5 C-6.88699219 2.0359375 -6.08648438 1.571875 -5.26171875 1.09375 C-3 0 -3 0 0 0 Z " fill="#0C4574" transform="translate(521,458)"/>
<path d="M0 0 C0.625 1.8125 0.625 1.8125 1 4 C0.01 5.485 0.01 5.485 -1 7 C-1.66 7 -2.32 7 -3 7 C-3.66 8.32 -4.32 9.64 -5 11 C-5.33 10.34 -5.66 9.68 -6 9 C-4.21293716 5.54912004 -2.74146784 2.74146784 0 0 Z " fill="#0A426C" transform="translate(570,412)"/>
<path d="M0 0 C1.7074998 1.28062485 3.37373596 2.61767557 5 4 C5 4.66 5 5.32 5 6 C5.66 6 6.32 6 7 6 C7.33 7.65 7.66 9.3 8 11 C3.48709197 7.66437233 1.31793186 5.66710699 0 0 Z " fill="#097D9A" transform="translate(656,550)"/>
<path d="M0 0 C6.2049038 0.2757735 10.10160999 1.10640794 15 5 C12 6 12 6 9.8125 5.0625 C9.214375 4.711875 8.61625 4.36125 8 4 C8 3.34 8 2.68 8 2 C5.36 1.67 2.72 1.34 0 1 C0 0.67 0 0.34 0 0 Z " fill="#093D60" transform="translate(446,196)"/>
<path d="M0 0 C0.33 0 0.66 0 1 0 C1.53251766 1.91345327 2.05059483 3.8309295 2.5625 5.75 C2.85253906 6.81734375 3.14257812 7.8846875 3.44140625 8.984375 C3.97098494 11.84335927 3.98370862 13.31597383 3 16 C0.54970669 10.28264895 -0.33266291 6.20970773 0 0 Z " fill="#0A345B" transform="translate(402,299)"/>
<path d="M0 0 C1 2 1 2 0.375 4.5 C-1 7 -1 7 -3.625 8.3125 C-4.40875 8.539375 -5.1925 8.76625 -6 9 C-4.47291037 5.56404834 -2.40072955 2.88087546 0 0 Z " fill="#096481" transform="translate(266,603)"/>
<path d="M0 0 C0.66 0.33 1.32 0.66 2 1 C-0.31 3.31 -2.62 5.62 -5 8 C-5.99 7.67 -6.98 7.34 -8 7 C-5.36 4.69 -2.72 2.38 0 0 Z " fill="#09A7C6" transform="translate(559,554)"/>
<path d="M0 0 C4.31392226 0.4793247 6.16569547 1.7457985 9 5 C6.69 4.34 4.38 3.68 2 3 C2 2.34 2 1.68 2 1 C1.34 0.67 0.68 0.34 0 0 Z " fill="#097390" transform="translate(597,552)"/>
<path d="M0 0 C2.64 0 5.28 0 8 0 C8 0.66 8 1.32 8 2 C8.66 2.33 9.32 2.66 10 3 C3.375 2.25 3.375 2.25 0 0 Z " fill="#09506C" transform="translate(378,575)"/>
<path d="M0 0 C0.66 0.66 1.32 1.32 2 2 C-1.96 1.67 -5.92 1.34 -10 1 C-10 0.67 -10 0.34 -10 0 C-3.42391304 -1.3451087 -3.42391304 -1.3451087 0 0 Z " fill="#0A9CBB" transform="translate(586,563)"/>
<path d="M0 0 C0.33 0.66 0.66 1.32 1 2 C0.22265625 3.7265625 0.22265625 3.7265625 -0.9375 5.625 C-1.618125 6.73875 -2.29875 7.8525 -3 9 C-4 6 -4 6 -3 3 C-2.34 3 -1.68 3 -1 3 C-0.67 2.01 -0.34 1.02 0 0 Z " fill="#0E3768" transform="translate(502,323)"/>
</svg>
